<svg width="121" height="120" viewBox="0 0 121 120" fill="none" xmlns="http://www.w3.org/2000/svg">
<g clipPath="url(#clip0_1754_13121)">
<path d="M4.53246 114.699C4.44168 114.6 4.33748 114.515 4.22295 114.446C4.08622 114.361 3.94215 114.288 3.79247 114.229C3.62385 114.162 3.45016 114.109 3.27305 114.069C3.07876 114.029 2.88088 114.009 2.68248 114.009C2.27369 113.976 1.86535 114.077 1.51912 114.297C1.40145 114.391 1.30783 114.511 1.24597 114.649C1.18411 114.786 1.1558 114.936 1.16336 115.086C1.15718 115.243 1.1941 115.398 1.27009 115.535C1.35263 115.662 1.46656 115.766 1.60095 115.837C1.77793 115.931 1.96542 116.004 2.1595 116.054C2.38363 116.115 2.65046 116.182 2.95642 116.25C3.27882 116.317 3.59715 116.403 3.90987 116.506C4.16268 116.59 4.40225 116.71 4.6214 116.862C4.81486 116.994 4.97251 117.173 5.08034 117.381C5.19368 117.616 5.2486 117.875 5.24044 118.135C5.24773 118.421 5.18158 118.704 5.04833 118.957C4.92121 119.187 4.74214 119.385 4.52535 119.534C4.28887 119.693 4.02458 119.806 3.74622 119.868C3.4253 119.941 3.097 119.977 2.76786 119.975C2.26239 119.978 1.75987 119.897 1.28076 119.736C0.81701 119.582 0.383617 119.349 0 119.046L0.412689 118.335C0.533337 118.455 0.666981 118.561 0.811147 118.651C0.986139 118.764 1.17207 118.86 1.36614 118.936C1.58344 119.021 1.80708 119.089 2.03498 119.139C2.28279 119.192 2.5357 119.218 2.78921 119.217C3.18088 119.239 3.57109 119.153 3.91699 118.968C4.04813 118.89 4.15513 118.777 4.22609 118.642C4.29706 118.507 4.32922 118.355 4.319 118.203C4.32489 118.038 4.2802 117.876 4.19093 117.737C4.0933 117.598 3.96402 117.485 3.81382 117.406C3.61713 117.302 3.40953 117.219 3.19478 117.161C2.9493 117.089 2.66825 117.015 2.35873 116.94C2.0503 116.871 1.74618 116.785 1.44797 116.68C1.21318 116.602 0.991358 116.489 0.789802 116.346C0.621012 116.223 0.485316 116.061 0.394901 115.873C0.298605 115.663 0.252322 115.434 0.259709 115.204C0.25377 114.915 0.315925 114.628 0.44115 114.368C0.561715 114.128 0.735758 113.918 0.949896 113.756C1.18089 113.58 1.44452 113.452 1.72547 113.379C2.04307 113.292 2.37114 113.251 2.70027 113.254C3.12403 113.248 3.54556 113.317 3.94545 113.457C4.30222 113.586 4.63612 113.771 4.93448 114.005L4.53246 114.699Z" fill="#007D51"/>
<path d="M10.5735 119.911H9.73393V117.197C9.75964 116.801 9.66141 116.407 9.45287 116.069C9.36103 115.95 9.24128 115.855 9.10417 115.793C8.96706 115.731 8.81681 115.704 8.66663 115.713C8.49573 115.714 8.32659 115.748 8.16856 115.813C7.82776 115.946 7.53255 116.175 7.31828 116.471C7.20751 116.627 7.12225 116.8 7.06568 116.983V119.911H6.25098V113.127H7.09414V116.101C7.28274 115.759 7.56002 115.474 7.89684 115.276C8.23365 115.078 8.61755 114.975 9.00817 114.977C9.26607 114.969 9.5221 115.023 9.75527 115.133C9.95266 115.233 10.1216 115.381 10.2462 115.564C10.3732 115.76 10.4624 115.979 10.5095 116.208C10.5635 116.472 10.5897 116.742 10.5878 117.012L10.5735 119.911Z" fill="#007D51"/>
<path d="M13.1709 120.003C12.9451 120.005 12.7208 119.965 12.5092 119.886C12.3143 119.813 12.1346 119.704 11.9791 119.566C11.8301 119.432 11.7091 119.27 11.6234 119.089C11.5374 118.9 11.4937 118.695 11.4953 118.488C11.4917 118.275 11.5445 118.065 11.6483 117.879C11.757 117.692 11.9065 117.531 12.0859 117.41C12.2908 117.272 12.5166 117.169 12.7547 117.104C13.0304 117.028 13.3154 116.99 13.6014 116.994C13.8495 116.994 14.097 117.015 14.3414 117.058C14.5662 117.095 14.7867 117.154 14.9996 117.235V116.844C15.008 116.673 14.9807 116.501 14.9194 116.341C14.8582 116.18 14.7644 116.034 14.6438 115.912C14.5137 115.79 14.3603 115.696 14.1927 115.635C14.0252 115.573 13.8471 115.547 13.669 115.556C13.0939 115.58 12.5394 115.777 12.0787 116.122L11.8012 115.595C12.3716 115.196 13.0477 114.976 13.7437 114.962C14.303 114.928 14.8539 115.111 15.2806 115.474C15.4687 115.659 15.6152 115.881 15.7103 116.126C15.8054 116.372 15.8469 116.635 15.8321 116.897V118.915C15.8321 119.107 15.921 119.203 16.1025 119.21V119.921L15.8819 119.946C15.8215 119.95 15.7609 119.95 15.7004 119.946C15.6279 119.95 15.5553 119.94 15.4869 119.915C15.4185 119.891 15.3557 119.853 15.302 119.804C15.2026 119.71 15.1396 119.584 15.1241 119.448V119.093C14.9011 119.382 14.6087 119.611 14.2738 119.758C13.9277 119.917 13.5518 120 13.1709 120.003ZM13.3915 119.388C13.6792 119.39 13.9645 119.336 14.2311 119.228C14.4619 119.138 14.6645 118.988 14.8181 118.794C14.8708 118.75 14.9141 118.696 14.9452 118.634C14.9764 118.573 14.9949 118.506 14.9996 118.438V117.726C14.5916 117.571 14.1588 117.492 13.7224 117.492C13.3616 117.475 13.0039 117.565 12.6942 117.751C12.5754 117.819 12.4764 117.917 12.4071 118.035C12.3378 118.153 12.3006 118.287 12.2993 118.424C12.2989 118.555 12.3269 118.685 12.3811 118.804C12.4349 118.922 12.5138 119.027 12.6124 119.11C12.7161 119.201 12.8371 119.27 12.9682 119.313C13.1038 119.363 13.2471 119.388 13.3915 119.388Z" fill="#007D51"/>
<path d="M19.8377 115.777C19.4442 115.781 19.0587 115.889 18.7206 116.09C18.4057 116.281 18.165 116.573 18.0375 116.919V119.911H17.1943V115.062H17.9912V116.183C18.1507 115.862 18.3835 115.585 18.6708 115.371C18.9308 115.17 19.2431 115.046 19.5708 115.016H19.7345C19.7723 115.012 19.8105 115.012 19.8483 115.016L19.8377 115.777Z" fill="#007D51"/>
<path d="M22.769 120.004C22.414 120.007 22.0619 119.94 21.7337 119.805C21.4337 119.68 21.1617 119.496 20.9338 119.265C20.7059 119.033 20.5267 118.758 20.4067 118.456C20.16 117.833 20.16 117.14 20.4067 116.517C20.5273 116.219 20.7063 115.948 20.9332 115.72C21.1665 115.489 21.4418 115.304 21.7444 115.176C22.0714 115.041 22.4223 114.973 22.7761 114.977C23.1303 114.972 23.4817 115.041 23.8078 115.18C24.1035 115.309 24.3716 115.494 24.5976 115.724C24.8148 115.952 24.9853 116.22 25.0992 116.514C25.2166 116.812 25.2769 117.129 25.2771 117.449C25.2771 117.517 25.2771 117.577 25.2771 117.634C25.2771 117.691 25.2771 117.734 25.2771 117.762H21.1111C21.1256 117.992 21.1835 118.216 21.2819 118.424C21.4655 118.807 21.7851 119.107 22.1784 119.267C22.5178 119.404 22.893 119.426 23.2457 119.328C23.389 119.291 23.5275 119.237 23.6584 119.168C23.7893 119.102 23.9093 119.017 24.0142 118.915C24.1099 118.819 24.186 118.706 24.2383 118.581L24.9498 118.776C24.8602 118.959 24.7399 119.125 24.5941 119.267C24.4471 119.419 24.2794 119.55 24.096 119.655C23.6865 119.889 23.2228 120.012 22.7512 120.011L22.769 120.004ZM24.4838 117.158C24.4659 116.936 24.4055 116.72 24.3059 116.521C24.1637 116.238 23.945 116 23.6747 115.834C23.4043 115.669 23.093 115.583 22.7761 115.585C22.5606 115.584 22.3469 115.624 22.1464 115.703C21.9532 115.777 21.7758 115.886 21.6234 116.026C21.4755 116.169 21.355 116.338 21.2676 116.524C21.1726 116.723 21.1159 116.938 21.1004 117.158H24.4838Z" fill="#007D51"/>
<path d="M28.6393 113.315L30.8913 118.862L33.1326 113.315H34.0398L31.2648 119.911H30.5177L27.7285 113.315H28.6393Z" fill="#007D51"/>
<path d="M35.6012 120.004C35.3764 120.006 35.1533 119.966 34.943 119.887C34.7466 119.814 34.5656 119.706 34.4094 119.566C34.2601 119.433 34.1391 119.271 34.0536 119.09C33.9646 118.902 33.9195 118.696 33.922 118.488C33.9202 118.276 33.9729 118.066 34.075 117.88C34.1836 117.693 34.3332 117.532 34.5125 117.41C34.7181 117.274 34.9438 117.171 35.1814 117.104C35.4582 117.028 35.7445 116.991 36.0317 116.994C36.2785 116.995 36.5249 117.016 36.7681 117.058C36.9941 117.095 37.2158 117.155 37.4298 117.236V116.845C37.4376 116.673 37.41 116.502 37.3488 116.342C37.2876 116.181 37.1941 116.035 37.0741 115.913C36.9433 115.791 36.7892 115.696 36.6211 115.635C36.453 115.574 36.2743 115.547 36.0957 115.557C35.5206 115.58 34.9661 115.778 34.5054 116.123L34.2279 115.596C34.7992 115.196 35.4768 114.976 36.174 114.963C36.7331 114.93 37.2834 115.113 37.7109 115.475C37.8982 115.66 38.0442 115.882 38.1392 116.127C38.2343 116.373 38.2762 116.635 38.2623 116.898V118.915C38.2623 119.107 38.3513 119.203 38.5292 119.211V119.922L38.3086 119.947C38.2482 119.951 38.1876 119.951 38.1271 119.947C38.0546 119.951 37.982 119.94 37.9136 119.916C37.8452 119.891 37.7823 119.854 37.7287 119.805C37.6307 119.71 37.568 119.584 37.5508 119.449L37.533 119.093C37.3114 119.383 37.0201 119.612 36.6863 119.758C36.3454 119.914 35.976 119.998 35.6012 120.004ZM35.8218 119.388C36.1095 119.391 36.3948 119.337 36.6614 119.228C36.8931 119.14 37.0962 118.99 37.2484 118.794C37.302 118.751 37.3462 118.697 37.378 118.636C37.4098 118.575 37.4287 118.507 37.4334 118.439V117.727C37.0262 117.574 36.5947 117.496 36.1597 117.496C35.7978 117.479 35.4391 117.57 35.128 117.755C35.0082 117.824 34.9084 117.923 34.8385 118.042C34.7686 118.161 34.7311 118.297 34.7296 118.435C34.7292 118.566 34.7571 118.696 34.8114 118.816C34.8651 118.933 34.944 119.038 35.0426 119.122C35.147 119.212 35.2678 119.28 35.3984 119.324C35.5347 119.37 35.678 119.392 35.8218 119.388Z" fill="#007D51"/>
<path d="M39.6432 113.127H40.4864V118.656C40.4819 118.733 40.4928 118.81 40.5185 118.882C40.5441 118.955 40.584 119.022 40.6358 119.079C40.6908 119.132 40.7562 119.173 40.8279 119.199C40.8995 119.225 40.9759 119.237 41.052 119.232C41.136 119.23 41.2195 119.22 41.3011 119.2C41.3925 119.179 41.4828 119.152 41.5715 119.122L41.7031 119.78C41.3813 119.898 41.0426 119.964 40.6998 119.975C40.5597 119.983 40.4194 119.964 40.2869 119.917C40.1544 119.871 40.0324 119.799 39.9278 119.705C39.8304 119.607 39.7546 119.489 39.7056 119.36C39.6566 119.231 39.6353 119.093 39.6432 118.954V113.127Z" fill="#007D51"/>
<path d="M43.9084 120.003C43.6839 120.018 43.4592 119.979 43.2527 119.89C43.0461 119.801 42.8636 119.664 42.7201 119.491C42.4198 119.042 42.2783 118.506 42.3181 117.968V115.062H43.1613V117.808C43.1613 118.802 43.5171 119.297 44.2286 119.295C44.579 119.293 44.92 119.181 45.2034 118.975C45.5105 118.756 45.7448 118.45 45.8758 118.096V115.062H46.719V118.914C46.713 118.952 46.7157 118.991 46.7268 119.028C46.7379 119.065 46.7571 119.099 46.7831 119.127C46.8091 119.156 46.8411 119.178 46.8768 119.192C46.9125 119.206 46.951 119.212 46.9893 119.21V119.921L46.7616 119.943H46.6051C46.4535 119.949 46.305 119.898 46.1889 119.8C46.136 119.757 46.0929 119.703 46.0623 119.641C46.0316 119.58 46.0142 119.513 46.011 119.445L45.9932 118.879C45.7811 119.234 45.476 119.524 45.1109 119.718C44.7403 119.913 44.3268 120.011 43.9084 120.003Z" fill="#007D51"/>
<path d="M50.3334 120.004C49.9785 120.008 49.6264 119.94 49.2981 119.805C48.9981 119.68 48.7262 119.496 48.4982 119.265C48.2703 119.033 48.0911 118.758 47.9711 118.456C47.7245 117.834 47.7245 117.14 47.9711 116.517C48.0931 116.22 48.272 115.949 48.4977 115.72C48.7309 115.489 49.0062 115.304 49.3088 115.176C49.6371 115.041 49.9891 114.973 50.3441 114.977C50.682 114.972 51.0174 115.035 51.3299 115.163C51.6424 115.292 51.9256 115.483 52.1621 115.724C52.3789 115.953 52.5504 116.221 52.6672 116.514C52.7835 116.812 52.8426 117.129 52.8416 117.449C52.8416 117.517 52.8416 117.578 52.8416 117.634C52.845 117.677 52.845 117.72 52.8416 117.763H48.6755C48.693 117.992 48.752 118.216 48.8499 118.424C48.9359 118.614 49.0565 118.787 49.2056 118.933C49.3571 119.075 49.5331 119.188 49.7251 119.267C49.9212 119.349 50.1317 119.39 50.3441 119.388C50.4968 119.39 50.6489 119.369 50.7959 119.328C50.9381 119.291 51.0754 119.237 51.205 119.168C51.3359 119.102 51.4559 119.017 51.5608 118.915C51.6577 118.82 51.734 118.706 51.785 118.581L52.5143 118.776C52.427 118.961 52.3064 119.127 52.1585 119.267C52.0115 119.419 51.8438 119.55 51.6604 119.655C51.4631 119.766 51.2527 119.852 51.0343 119.911C50.8055 119.971 50.57 120.003 50.3334 120.004ZM52.0482 117.158C52.0321 116.936 51.9716 116.719 51.8703 116.521C51.6868 116.144 51.3661 115.851 50.9738 115.703C50.7734 115.623 50.5596 115.584 50.3441 115.585C50.1275 115.584 49.9126 115.624 49.7108 115.703C49.3195 115.85 49.0016 116.145 48.825 116.524C48.73 116.723 48.6732 116.938 48.6578 117.158H52.0482Z" fill="#007D51"/>
<path d="M53.7139 119.912V118.869H54.4254V119.912H53.7139Z" fill="#007D51"/>
<path d="M63.4935 118.204C63.4975 118.45 63.4439 118.694 63.337 118.915C63.2326 119.122 63.0859 119.305 62.9065 119.452C62.7187 119.608 62.5041 119.729 62.2732 119.808C62.0239 119.889 61.7633 119.93 61.5012 119.929H58.2744V113.316H61.6542C61.8773 113.313 62.0979 113.363 62.2981 113.461C62.4848 113.557 62.6505 113.689 62.7855 113.849C62.9211 114.008 63.026 114.19 63.0951 114.386C63.1677 114.581 63.205 114.787 63.2053 114.995C63.2091 115.316 63.1215 115.632 62.9528 115.906C62.7873 116.183 62.5382 116.401 62.2412 116.528C62.6081 116.626 62.9313 116.844 63.1586 117.148C63.3859 117.452 63.5039 117.824 63.4935 118.204ZM59.1354 114.031V116.233H61.302C61.4468 116.235 61.5903 116.205 61.7218 116.144C61.847 116.089 61.9596 116.009 62.0527 115.909C62.2469 115.699 62.3549 115.423 62.3551 115.137C62.3563 114.988 62.3298 114.839 62.2768 114.699C62.2317 114.569 62.1616 114.448 62.0704 114.344C61.9845 114.244 61.8776 114.165 61.7574 114.112C61.6323 114.056 61.4963 114.026 61.3589 114.027L59.1354 114.031ZM62.6219 118.054C62.6233 117.907 62.5955 117.761 62.5401 117.624C62.4879 117.493 62.4132 117.373 62.3195 117.268C62.2276 117.165 62.1164 117.08 61.9922 117.019C61.8602 116.956 61.7152 116.924 61.5688 116.927H59.1354V119.193H61.5012C61.6532 119.194 61.8036 119.162 61.9424 119.1C62.0736 119.039 62.1938 118.956 62.2981 118.855C62.3987 118.752 62.4795 118.631 62.5365 118.499C62.5949 118.361 62.6239 118.212 62.6219 118.061V118.054Z" fill="#007D51"/>
<path d="M66.1081 120.003C65.8837 120.018 65.6589 119.979 65.4524 119.89C65.2458 119.801 65.0633 119.664 64.9199 119.491C64.621 119.042 64.4796 118.506 64.5178 117.968V115.062H65.361V117.808C65.361 118.802 65.7168 119.297 66.4283 119.295C66.7777 119.294 67.1177 119.182 67.3996 118.975C67.7086 118.757 67.9443 118.451 68.0755 118.096V115.062H68.9187V118.914C68.9187 119.107 69.0076 119.203 69.1855 119.21V119.921L68.9614 119.943H68.8048C68.6532 119.949 68.5047 119.898 68.3886 119.8C68.3351 119.757 68.2915 119.703 68.2608 119.642C68.2301 119.58 68.213 119.513 68.2107 119.445L68.1894 118.879C67.9795 119.234 67.6754 119.525 67.3106 119.718C66.9401 119.913 66.5265 120.011 66.1081 120.003Z" fill="#007D51"/>
<path d="M70.3242 114.152V113.127H71.1674V114.152H70.3242ZM70.3242 119.911V115.062H71.1674V119.911H70.3242Z" fill="#007D51"/>
<path d="M72.5446 113.127H73.3877V118.656C73.3833 118.733 73.3942 118.81 73.4198 118.882C73.4455 118.955 73.4854 119.022 73.5372 119.079C73.5922 119.132 73.6576 119.173 73.7292 119.199C73.8009 119.225 73.8772 119.237 73.9534 119.232C74.0373 119.23 74.1208 119.22 74.2025 119.2C74.2939 119.179 74.3841 119.152 74.4728 119.122L74.6045 119.78C74.2827 119.898 73.9439 119.964 73.6012 119.975C73.4611 119.983 73.3207 119.964 73.1883 119.917C73.0558 119.871 72.9338 119.799 72.8292 119.705C72.7317 119.607 72.656 119.489 72.607 119.36C72.5579 119.231 72.5367 119.093 72.5446 118.954V113.127Z" fill="#007D51"/>
<path d="M77.3257 120.004C76.9953 120.008 76.6682 119.937 76.3687 119.798C76.0813 119.669 75.8234 119.482 75.6109 119.25C75.3971 119.018 75.2293 118.747 75.1164 118.453C74.9983 118.148 74.938 117.823 74.9385 117.496C74.9367 117.164 74.9945 116.835 75.1093 116.525C75.2128 116.229 75.3723 115.956 75.5789 115.72C75.7772 115.493 76.0191 115.308 76.2904 115.176C76.5778 115.042 76.8914 114.974 77.2083 114.977C77.5863 114.972 77.9574 115.079 78.2756 115.283C78.5778 115.473 78.8352 115.727 79.0298 116.026V113.127H79.8943V118.915C79.8943 119.107 79.9833 119.203 80.1612 119.211V119.922L79.9477 119.947H79.7876C79.6274 119.95 79.4722 119.891 79.3536 119.783C79.296 119.739 79.2491 119.683 79.2165 119.618C79.1838 119.553 79.1662 119.482 79.165 119.41V119.001C78.9706 119.311 78.6983 119.565 78.3752 119.737C78.0541 119.915 77.6927 120.007 77.3257 120.004ZM77.5249 119.292C77.6872 119.29 77.848 119.263 78.0017 119.211C78.1645 119.153 78.3188 119.074 78.4606 118.976C78.5959 118.875 78.7158 118.755 78.8164 118.62C78.9172 118.497 78.9879 118.352 79.0227 118.197V116.816C78.961 116.656 78.8733 116.507 78.763 116.375C78.6494 116.241 78.519 116.121 78.3752 116.019C78.2333 115.919 78.079 115.838 77.9163 115.777C77.7282 115.711 77.5287 115.683 77.3296 115.694C77.1304 115.706 76.9356 115.757 76.7565 115.845C76.559 115.944 76.3835 116.082 76.2406 116.251C76.0939 116.423 75.9816 116.623 75.9098 116.838C75.8323 117.053 75.7926 117.281 75.7924 117.51C75.7898 117.754 75.8358 117.996 75.9275 118.221C76.0076 118.433 76.1285 118.626 76.2833 118.791C76.4362 118.954 76.62 119.086 76.8241 119.179C77.0457 119.271 77.2854 119.311 77.5249 119.296V119.292Z" fill="#007D51"/>
<path d="M87.8424 114.699C87.7528 114.601 87.6498 114.516 87.5365 114.446C87.3994 114.362 87.2554 114.289 87.106 114.229C86.9362 114.162 86.7613 114.109 86.583 114.069C86.3888 114.029 86.1909 114.008 85.9925 114.009C85.5837 113.976 85.1753 114.077 84.8291 114.297C84.7112 114.391 84.6174 114.511 84.5555 114.649C84.4937 114.786 84.4655 114.936 84.4733 115.087C84.4661 115.243 84.5018 115.398 84.5765 115.535C84.6591 115.662 84.773 115.766 84.9074 115.837C85.0856 115.931 85.2743 116.004 85.4695 116.054C85.6901 116.115 85.9569 116.182 86.2628 116.25C86.5854 116.317 86.9037 116.402 87.2163 116.506C87.4751 116.589 87.7208 116.709 87.9456 116.862C88.1375 116.996 88.2947 117.174 88.4046 117.381C88.5849 117.747 88.6281 118.165 88.5263 118.56C88.4245 118.955 88.1843 119.301 87.8496 119.534C87.6121 119.693 87.3466 119.807 87.0669 119.868C86.7472 119.941 86.4201 119.977 86.0921 119.975C85.5854 119.978 85.0817 119.898 84.6014 119.736C84.1384 119.583 83.7061 119.35 83.3242 119.046L83.7333 118.335C83.854 118.455 83.9876 118.561 84.1318 118.651C84.3076 118.763 84.4934 118.858 84.6868 118.936C84.9052 119.021 85.13 119.089 85.3592 119.139C85.6058 119.192 85.8575 119.219 86.1099 119.217C86.5027 119.24 86.8943 119.154 87.2412 118.968C87.3701 118.89 87.4756 118.779 87.5464 118.646C87.6172 118.514 87.6506 118.364 87.6432 118.214C87.6497 118.048 87.6036 117.885 87.5116 117.748C87.414 117.609 87.2847 117.496 87.1345 117.417C86.9378 117.312 86.7302 117.23 86.5154 117.171C86.27 117.1 85.9925 117.025 85.6794 116.951C85.3711 116.882 85.067 116.795 84.7686 116.691C84.5345 116.614 84.3137 116.501 84.114 116.357C83.9433 116.235 83.8062 116.072 83.7156 115.883C83.6209 115.673 83.5747 115.445 83.5804 115.215C83.5744 114.926 83.6366 114.639 83.7618 114.379C83.8824 114.138 84.0564 113.929 84.2705 113.767C84.5019 113.591 84.7654 113.463 85.0461 113.39C85.3649 113.303 85.6942 113.261 86.0245 113.265C86.4482 113.259 86.8697 113.328 87.2697 113.468C87.6253 113.597 87.9581 113.782 88.2551 114.016L87.8424 114.699Z" fill="#007D51"/>
<path d="M91.09 120.003C90.8656 120.018 90.6409 119.979 90.4343 119.89C90.2278 119.801 90.0453 119.664 89.9018 119.491C89.6014 119.042 89.4599 118.506 89.4998 117.968V115.062H90.3429V117.808C90.3429 118.802 90.6987 119.297 91.4102 119.295C91.7607 119.293 92.1017 119.181 92.385 118.975C92.6923 118.755 92.9275 118.449 93.061 118.096V115.062H93.9006V118.914C93.8946 118.952 93.8973 118.991 93.9084 119.028C93.9195 119.065 93.9388 119.099 93.9647 119.127C93.9907 119.156 94.0227 119.178 94.0584 119.192C94.0941 119.206 94.1326 119.212 94.171 119.21V119.921L93.9469 119.943H93.769C93.6173 119.949 93.4689 119.898 93.3527 119.8C93.2999 119.757 93.2568 119.703 93.2261 119.641C93.1955 119.58 93.178 119.513 93.1748 119.445L93.1571 118.879C92.9459 119.235 92.6406 119.525 92.2747 119.718C91.9095 119.91 91.5024 120.008 91.09 120.003Z" fill="#007D51"/>
<path d="M94.9678 117.492C94.9661 117.162 95.0276 116.834 95.1493 116.527C95.2665 116.23 95.4433 115.96 95.6687 115.734C95.8962 115.503 96.167 115.32 96.4656 115.193C96.7949 115.058 97.1483 114.99 97.5044 114.994C97.956 114.982 98.4024 115.092 98.7959 115.314C99.1446 115.518 99.4283 115.817 99.6141 116.175L98.7887 116.424C98.6638 116.199 98.4776 116.014 98.2515 115.891C98.0173 115.762 97.7537 115.697 97.4866 115.702C97.2656 115.699 97.0463 115.743 96.8433 115.83C96.6404 115.918 96.4583 116.048 96.3091 116.211C95.9946 116.563 95.8233 117.02 95.8288 117.492C95.8265 117.971 96.0028 118.434 96.3233 118.79C96.4714 118.952 96.6505 119.083 96.8498 119.174C97.053 119.267 97.274 119.315 97.4973 119.313C97.6442 119.314 97.7904 119.294 97.9314 119.253C98.0692 119.216 98.2019 119.162 98.3263 119.093C98.4394 119.027 98.5435 118.947 98.6358 118.854C98.7197 118.772 98.7852 118.672 98.8279 118.562L99.6533 118.804C99.5738 118.985 99.4643 119.151 99.3295 119.295C99.1901 119.448 99.0266 119.576 98.8457 119.676C98.6516 119.785 98.4449 119.87 98.2302 119.929C97.998 119.99 97.7588 120.021 97.5187 120.021C97.1629 120.026 96.8101 119.956 96.4834 119.815C96.1816 119.687 95.9082 119.501 95.6793 119.267C95.453 119.037 95.2762 118.764 95.1599 118.463C95.0315 118.155 94.9662 117.825 94.9678 117.492Z" fill="#007D51"/>
<path d="M100.227 117.491C100.225 117.161 100.286 116.834 100.408 116.527C100.525 116.23 100.702 115.96 100.927 115.734C101.155 115.503 101.426 115.319 101.724 115.193C102.055 115.057 102.409 114.989 102.767 114.994C103.217 114.982 103.662 115.093 104.055 115.314C104.403 115.518 104.687 115.817 104.873 116.175L104.048 116.424C103.923 116.2 103.738 116.015 103.514 115.891C103.278 115.763 103.014 115.698 102.745 115.702C102.524 115.699 102.305 115.743 102.102 115.83C101.899 115.918 101.717 116.048 101.568 116.211C101.253 116.563 101.082 117.02 101.088 117.491C101.094 117.967 101.275 118.423 101.596 118.772C101.744 118.934 101.923 119.065 102.123 119.156C102.326 119.249 102.547 119.297 102.77 119.295C102.917 119.296 103.063 119.276 103.204 119.235C103.342 119.199 103.475 119.145 103.599 119.075C103.712 119.009 103.817 118.929 103.909 118.836C103.986 118.757 104.046 118.662 104.087 118.559L104.912 118.801C104.833 118.981 104.723 119.147 104.588 119.292C104.449 119.444 104.285 119.573 104.104 119.672C103.91 119.781 103.704 119.866 103.489 119.925C103.257 119.986 103.018 120.018 102.777 120.017C102.422 120.022 102.069 119.952 101.742 119.811C101.44 119.684 101.167 119.498 100.938 119.263C100.713 119.033 100.536 118.759 100.419 118.459C100.292 118.152 100.227 117.823 100.227 117.491Z" fill="#007D51"/>
<path d="M108.032 120.004C107.678 120.008 107.327 119.94 107 119.805C106.699 119.681 106.426 119.498 106.198 119.266C105.97 119.035 105.791 118.759 105.673 118.456C105.422 117.834 105.422 117.139 105.673 116.517C105.794 116.219 105.973 115.948 106.199 115.72C106.431 115.488 106.705 115.303 107.007 115.176C107.335 115.041 107.687 114.973 108.042 114.977C108.395 114.972 108.746 115.041 109.071 115.18C109.367 115.31 109.636 115.494 109.864 115.724C110.081 115.952 110.252 116.22 110.365 116.514C110.483 116.812 110.543 117.129 110.543 117.449C110.543 117.517 110.543 117.577 110.543 117.634C110.547 117.677 110.547 117.72 110.543 117.762H106.377C106.392 117.992 106.45 118.216 106.548 118.424C106.732 118.807 107.051 119.107 107.445 119.267C107.639 119.349 107.849 119.39 108.06 119.388C108.213 119.39 108.365 119.369 108.512 119.328C108.655 119.29 108.793 119.236 108.925 119.168C109.049 119.101 109.163 119.016 109.263 118.915C109.359 118.819 109.436 118.706 109.49 118.581L110.202 118.776C110.114 118.96 109.993 119.126 109.846 119.267C109.698 119.418 109.53 119.548 109.348 119.655C108.937 119.889 108.472 120.011 108 120.011L108.032 120.004ZM109.746 117.158C109.73 116.936 109.67 116.719 109.569 116.521C109.478 116.332 109.351 116.163 109.195 116.023C108.956 115.812 108.664 115.671 108.35 115.615C108.037 115.558 107.714 115.589 107.416 115.703C107.224 115.777 107.048 115.887 106.897 116.026C106.748 116.169 106.627 116.338 106.541 116.524C106.448 116.724 106.391 116.938 106.374 117.158H109.746Z" fill="#007D51"/>
<path d="M113.234 120.004C112.831 120.003 112.43 119.942 112.045 119.822C111.68 119.714 111.339 119.535 111.042 119.296L111.398 118.748C111.667 118.952 111.964 119.117 112.28 119.235C112.577 119.346 112.892 119.401 113.209 119.399C113.511 119.414 113.811 119.341 114.073 119.189C114.175 119.129 114.259 119.042 114.316 118.938C114.373 118.834 114.401 118.717 114.397 118.598C114.401 118.492 114.369 118.387 114.308 118.3C114.241 118.207 114.154 118.131 114.052 118.079C113.911 118.009 113.763 117.953 113.611 117.912C113.433 117.862 113.223 117.809 112.988 117.755C112.689 117.681 112.429 117.609 112.212 117.542C112.023 117.486 111.842 117.405 111.675 117.3C111.546 117.217 111.44 117.102 111.369 116.965C111.301 116.814 111.268 116.648 111.273 116.482C111.27 116.264 111.318 116.049 111.415 115.854C111.511 115.659 111.653 115.49 111.828 115.361C112.013 115.231 112.219 115.134 112.437 115.073C112.681 115.007 112.934 114.975 113.187 114.977C113.551 114.973 113.912 115.033 114.255 115.155C114.554 115.258 114.833 115.414 115.076 115.617L114.692 116.112C114.484 115.931 114.242 115.793 113.981 115.706C113.722 115.617 113.45 115.571 113.177 115.571C112.904 115.562 112.635 115.629 112.397 115.763C112.292 115.824 112.205 115.913 112.148 116.02C112.091 116.128 112.065 116.25 112.074 116.371C112.067 116.468 112.09 116.564 112.138 116.649C112.186 116.733 112.258 116.801 112.344 116.844C112.457 116.907 112.576 116.958 112.7 116.994C112.853 117.037 113.031 117.083 113.244 117.133C113.575 117.207 113.863 117.282 114.109 117.36C114.325 117.424 114.532 117.516 114.724 117.634C114.868 117.724 114.99 117.846 115.08 117.99C115.164 118.151 115.206 118.331 115.201 118.513C115.206 118.721 115.159 118.928 115.066 119.114C114.972 119.3 114.834 119.46 114.664 119.58C114.245 119.872 113.743 120.02 113.234 120.004Z" fill="#007D51"/>
<path d="M117.961 120.004C117.558 120.004 117.157 119.942 116.773 119.822C116.407 119.714 116.067 119.535 115.77 119.296L116.125 118.748C116.394 118.952 116.691 119.117 117.008 119.235C117.305 119.346 117.619 119.401 117.936 119.399C118.239 119.414 118.539 119.341 118.801 119.189C118.903 119.129 118.987 119.042 119.044 118.938C119.101 118.834 119.129 118.717 119.124 118.598C119.128 118.492 119.097 118.387 119.035 118.3C118.969 118.207 118.881 118.131 118.779 118.079C118.638 118.009 118.49 117.953 118.338 117.912C118.16 117.862 117.95 117.809 117.716 117.755C117.413 117.681 117.157 117.609 116.94 117.542C116.75 117.487 116.57 117.405 116.403 117.3C116.272 117.218 116.167 117.103 116.097 116.965C116.028 116.814 115.996 116.648 116.001 116.482C115.997 116.264 116.046 116.049 116.142 115.854C116.239 115.659 116.381 115.49 116.556 115.361C116.741 115.231 116.947 115.134 117.164 115.073C117.409 115.007 117.661 114.975 117.915 114.977C118.278 114.973 118.639 115.033 118.982 115.155C119.282 115.258 119.56 115.414 119.804 115.617L119.42 116.112C119.211 115.931 118.97 115.793 118.708 115.706C118.449 115.617 118.178 115.571 117.904 115.571C117.632 115.562 117.362 115.629 117.125 115.763C117.019 115.824 116.933 115.913 116.875 116.021C116.818 116.128 116.792 116.25 116.801 116.371C116.795 116.468 116.817 116.564 116.865 116.649C116.913 116.733 116.985 116.801 117.072 116.844C117.184 116.907 117.304 116.958 117.427 116.994C117.58 117.037 117.758 117.083 117.972 117.133C118.303 117.207 118.591 117.282 118.836 117.36C119.052 117.423 119.258 117.515 119.448 117.634C119.593 117.724 119.714 117.846 119.804 117.99C119.887 118.152 119.927 118.332 119.921 118.513C119.927 118.721 119.881 118.927 119.788 119.113C119.695 119.3 119.557 119.46 119.388 119.58C118.97 119.871 118.47 120.019 117.961 120.004Z" fill="#007D51"/>
<path d="M11.4699 95.8431H7.31811V106.715H4.16958V95.8431H0V93.0752H11.4699V95.8431Z" fill="#007D51"/>
<path d="M15.1765 93.0752H18.5776L23.2631 106.715H20.0363L18.969 103.659H14.7354L13.6965 106.715H10.4697L15.1765 93.0752ZM18.4602 101.482L16.8664 96.238L15.2334 101.482H18.4602Z" fill="#007D51"/>
<path d="M24.6084 106.715V93.0752H27.7605V98.9525L32.7412 93.0752H36.2775L31.1652 99.1659L36.6226 106.715H33.0258L29.1836 101.24L27.7605 102.699V106.715H24.6084Z" fill="#007D51"/>
<path d="M47.2386 103.947V106.715H37.6543V93.0752H47.0679V95.8431H40.8028V98.4935H46.182V101.048H40.8028V103.947H47.2386Z" fill="#007D51"/>
<path d="M53.6357 106.716V93.0756H59.4596C60.0598 93.0671 60.6546 93.1901 61.2023 93.4359C61.7499 93.6818 62.237 94.0445 62.6295 94.4987C63.4546 95.3604 63.9147 96.5076 63.9138 97.7006C63.9297 98.8995 63.4912 100.06 62.6865 100.949C62.2987 101.396 61.817 101.751 61.2757 101.99C60.7344 102.228 60.1471 102.344 59.5557 102.329H56.7878V106.73L53.6357 106.716ZM56.7878 99.5683H59.3636C59.5528 99.5678 59.7392 99.5224 59.9074 99.4358C60.0756 99.3492 60.2209 99.224 60.3313 99.0703C60.616 98.6671 60.7552 98.1791 60.7262 97.6863C60.7591 97.1924 60.6012 96.7046 60.285 96.3238C60.1567 96.1735 59.9975 96.0528 59.8182 95.9699C59.6389 95.887 59.4437 95.8439 59.2462 95.8435H56.7878V99.5683Z" fill="#007D51"/>
<path d="M65.6035 106.716V93.0755H71.7512C72.3502 93.0681 72.9436 93.1915 73.4899 93.4373C74.0362 93.6832 74.5222 94.0453 74.9139 94.4986C75.6071 95.2203 76.0487 96.1466 76.173 97.1395C76.2974 98.1324 76.0978 99.139 75.6041 100.009C75.2316 100.698 74.6683 101.265 73.9818 101.642L76.9774 106.716H73.4909L70.876 102.315H68.7414V106.716H65.6035ZM68.7556 99.5682H71.6373C71.831 99.5661 72.0211 99.5158 72.1907 99.4221C72.3602 99.3283 72.5038 99.1939 72.6086 99.031C72.8795 98.6362 73.0167 98.1648 72.9999 97.6862C73.0187 97.2038 72.8591 96.7314 72.5516 96.3592C72.4318 96.2039 72.2791 96.0771 72.1043 95.9879C71.9296 95.8987 71.7373 95.8493 71.5413 95.8434H68.7556V99.5682Z" fill="#007D51"/>
<path d="M77.5746 99.8781C77.5657 98.9845 77.734 98.0981 78.0699 97.27C78.4057 96.442 78.9024 95.6887 79.5313 95.0539C80.1512 94.3878 80.905 93.8603 81.7431 93.5059C82.5813 93.1515 83.4848 92.9783 84.3946 92.9975C85.6438 92.9818 86.8696 93.3371 87.9167 94.0186C88.9284 94.6581 89.7542 95.5526 90.311 96.6121C90.8537 97.6356 91.1371 98.7765 91.1364 99.935C91.1514 101.74 90.4504 103.477 89.1868 104.766C88.122 105.877 86.7087 106.588 85.1827 106.782C83.6567 106.977 82.1103 106.642 80.8013 105.834C79.785 105.197 78.9562 104.302 78.3999 103.24C77.8532 102.204 77.5697 101.049 77.5746 99.8781ZM84.3555 104.026C84.8618 104.049 85.3662 103.949 85.8249 103.733C86.2836 103.517 86.6829 103.193 86.9881 102.788C87.6176 101.95 87.9483 100.926 87.9273 99.8781C87.9527 98.8371 87.6129 97.8201 86.9668 97.0035C86.6569 96.6119 86.2588 96.2991 85.8049 96.0907C85.3511 95.8824 84.8544 95.7843 84.3555 95.8045C83.8507 95.7804 83.3477 95.8788 82.8892 96.0913C82.4308 96.3038 82.0306 96.6241 81.7228 97.0248C81.0899 97.8529 80.7574 98.8716 80.78 99.9136C80.7573 100.96 81.0966 101.981 81.7406 102.806C82.0474 103.203 82.4449 103.521 82.8998 103.734C83.3547 103.946 83.8538 104.046 84.3555 104.026Z" fill="#007D51"/>
<path d="M92.9619 106.715V93.0752H102.212V95.8431H96.1104V98.7817H101.145V101.336H96.1104V106.715H92.9619Z" fill="#007D51"/>
<path d="M103.891 106.715V93.0752H107.043V106.715H103.891Z" fill="#007D51"/>
<path d="M120.05 95.8431H115.898V106.715H112.75V95.8431H108.58V93.0752H120.05V95.8431Z" fill="#007D51"/>
<path d="M42.9521 19.2254C41.312 18.5139 39.9814 16.4362 39.9814 14.6005V2.28741C39.9814 0.444539 41.312 -0.469781 42.9521 0.245309L72.2957 13.0529C77.4045 15.28 79.9589 19.1863 79.9589 23.765V40.1018C79.9589 37.1845 77.4045 34.2637 72.2957 32.033L42.9521 19.2254Z" fill="url(#paint0_linear_1754_13121)"/>
<path d="M57.1899 54.7523V70.1748C57.1899 72.0212 55.8593 74.0882 54.2192 74.7998L42.9521 79.7129C41.312 80.4244 39.9814 79.5137 39.9814 77.6672V46.6159C39.9814 44.7695 41.312 42.7025 42.9521 41.991L69.0369 30.6064L72.2957 32.0295C77.4045 34.2602 79.9589 37.181 79.9589 40.0983C79.9589 43.0156 77.4045 45.94 72.2957 48.1706L57.1899 54.7523Z" fill="url(#paint1_linear_1754_13121)"/>
</g>
<defs>
<linearGradient id="paint0_linear_1754_13121" x1="76.5186" y1="26.7463" x2="13.3381" y2="-5.58213" gradientUnits="userSpaceOnUse">
<stop stop-color="#D8893E"/>
<stop offset="0.21" stop-color="#ED903D"/>
<stop offset="0.31" stop-color="#F9943C"/>
<stop offset="0.44" stop-color="#F99D3F"/>
<stop offset="0.65" stop-color="#F9B547"/>
<stop offset="0.91" stop-color="#F9DD54"/>
<stop offset="1" stop-color="#F9EC59"/>
</linearGradient>
<linearGradient id="paint1_linear_1754_13121" x1="36.2601" y1="67.937" x2="88.1309" y2="27.7639" gradientUnits="userSpaceOnUse">
<stop stop-color="#004A3F"/>
<stop offset="0.18" stop-color="#006A42"/>
<stop offset="0.54" stop-color="#00A364"/>
</linearGradient>
<clipPath id="clip0_1754_13121">
<rect width="120.046" height="120" fill="white"/>
</clipPath>
</defs>
</svg>
