<svg width="23" height="23" viewBox="0 0 23 23" fill="none" xmlns="http://www.w3.org/2000/svg">
<path d="M4.19966 0C1.87323 0 0 1.87323 0 4.19966V18.8004C0 21.1268 1.87323 23 4.19966 23H12.1131V14.0084H9.73549V10.7712H12.1131V8.00545C12.1131 5.83252 13.5179 3.83741 16.7541 3.83741C18.0643 3.83741 19.0332 3.9632 19.0332 3.9632L18.957 6.98627C18.957 6.98627 17.9689 6.97693 16.8906 6.97693C15.7236 6.97693 15.5365 7.51463 15.5365 8.40726V10.7712H19.0497L18.8967 14.0085H15.5365V23H18.8003C21.1268 23 23 21.1268 23 18.8004V4.19969C23 1.87326 21.1268 2.3e-05 18.8003 2.3e-05H4.19964L4.19966 0Z" fill="white"/>
</svg>
