<svg width="160" height="52" viewBox="0 0 160 52" fill="none" xmlns="http://www.w3.org/2000/svg">
<g clipPath="url(#clip0_285_200)">
<path d="M53.3579 15.8854H49.2867V26.5169H46.1907V15.8854H42.0966V13.1875H53.3579V15.8854Z" fill="#FE952B"/>
<path d="M57.0012 13.1875H60.341L64.9412 26.5032H61.7716L60.732 23.5172H56.5642L55.5476 26.5169H52.3734L57.0012 13.1875ZM60.2214 21.4183L58.6573 16.2969L57.0518 21.4183H60.2214Z" fill="#FE952B"/>
<path d="M66.2661 26.5169V13.1875H69.3574V18.9262L74.2658 13.1875H77.7344L72.7202 19.132L78.0748 26.5169H74.528L70.7743 21.1577L69.3942 22.5798V26.5169H66.2661Z" fill="#FE952B"/>
<path d="M88.4897 23.8007V26.5169H79.0776V13.1875H88.3195V15.8854H82.169V18.4735H87.4546V20.9702H82.169V23.8007H88.4897Z" fill="#FE952B"/>
<path d="M94.7736 26.517V13.1876H100.492C101.08 13.1776 101.663 13.2951 102.201 13.532C102.739 13.769 103.218 14.1195 103.606 14.5594C104.413 15.398 104.864 16.513 104.866 17.6734C104.883 18.8433 104.452 19.9759 103.661 20.8423C103.28 21.2793 102.807 21.627 102.275 21.8603C101.743 22.0935 101.165 22.2066 100.584 22.1912H97.8696V26.517H94.7736ZM97.8696 19.5391H100.395C100.581 19.5386 100.765 19.494 100.931 19.4089C101.096 19.3238 101.239 19.2007 101.347 19.0498C101.628 18.6573 101.766 18.1816 101.738 17.7008C101.77 17.218 101.613 16.7417 101.301 16.3702C101.175 16.2258 101.019 16.1102 100.843 16.0312C100.668 15.9523 100.477 15.912 100.285 15.9129H97.8696V19.5391Z" fill="#FE952B"/>
<path d="M106.527 26.5171V13.1877H112.567C113.153 13.1791 113.734 13.2973 114.269 13.5342C114.805 13.7711 115.282 14.1209 115.668 14.5595C116.482 15.3943 116.939 16.5107 116.942 17.6735C116.949 18.4741 116.744 19.2625 116.349 19.9599C115.98 20.6302 115.428 21.1834 114.757 21.5557L117.696 26.5171H114.283L111.716 22.2188H109.623V26.5171H106.527ZM109.623 19.5392H112.452C112.642 19.5374 112.829 19.4884 112.996 19.3965C113.162 19.3047 113.302 19.1729 113.404 19.0133C113.673 18.629 113.809 18.1685 113.791 17.7009C113.804 17.2278 113.64 16.7665 113.331 16.4069C113.214 16.2544 113.065 16.1297 112.894 16.0418C112.723 15.954 112.534 15.9053 112.342 15.8993H109.605L109.623 19.5392Z" fill="#FE952B"/>
<path d="M118.281 19.8226C118.274 18.9507 118.44 18.086 118.771 17.2785C119.102 16.4709 119.59 15.7364 120.208 15.1173C120.816 14.4668 121.555 13.9515 122.377 13.6055C123.199 13.2595 124.086 13.0906 124.979 13.1099C126.207 13.0948 127.412 13.4417 128.443 14.1067C129.435 14.7312 130.245 15.603 130.793 16.6354C131.325 17.6358 131.603 18.7504 131.603 19.8821C131.618 21.6434 130.93 23.3388 129.689 24.5965C128.642 25.6795 127.253 26.3729 125.753 26.561C124.254 26.7491 122.735 26.4204 121.45 25.6299C120.452 25.0089 119.639 24.1344 119.095 23.0967C118.557 22.0882 118.278 20.9638 118.281 19.8226ZM124.942 23.874C125.439 23.8967 125.934 23.7986 126.385 23.5882C126.835 23.3779 127.227 23.0616 127.527 22.6668C128.145 21.8479 128.469 20.8463 128.447 19.8226C128.472 18.8075 128.138 17.8158 127.504 17.0195C127.186 16.6498 126.791 16.3529 126.346 16.1493C125.901 15.9458 125.418 15.8404 124.928 15.8404C124.438 15.8404 123.955 15.9458 123.51 16.1493C123.065 16.3529 122.67 16.6498 122.352 17.0195C121.732 17.8307 121.407 18.8271 121.432 19.8455C121.411 20.8656 121.744 21.8619 122.375 22.6668C122.675 23.0573 123.064 23.3707 123.511 23.5807C123.957 23.7908 124.448 23.8913 124.942 23.874Z" fill="#FE952B"/>
<path d="M133.397 26.5169V13.1875H142.492V15.8854H136.511V18.7433H141.434V21.2354H136.488V26.5169H133.397Z" fill="#FE952B"/>
<path d="M144.129 26.5169V13.1875H147.225V26.5169H144.129Z" fill="#FE952B"/>
<path d="M160.018 15.8854H155.924V26.5169H152.828V15.8854H148.734V13.1875H160.018V15.8854Z" fill="#FE952B"/>
<path d="M46.5633 34.7936C46.4759 34.6963 46.3753 34.6117 46.2643 34.5421C46.1304 34.4588 45.9905 34.3854 45.8457 34.3226C45.6802 34.2566 45.5094 34.2045 45.3351 34.1671C45.1464 34.1247 44.9535 34.1033 44.76 34.1031C44.3578 34.0737 43.9569 34.1765 43.6192 34.3957C43.5008 34.4901 43.4066 34.611 43.3442 34.7485C43.2819 34.886 43.2531 35.0362 43.2604 35.1868C43.253 35.346 43.2896 35.5041 43.3662 35.6441C43.4426 35.7729 43.5543 35.8776 43.6882 35.9459C43.8598 36.0433 44.044 36.1172 44.2356 36.1654C44.4518 36.2294 44.6956 36.2934 45.0131 36.362C45.3247 36.4288 45.6319 36.5143 45.9331 36.6181C46.1867 36.7024 46.4269 36.8225 46.6461 36.9747C46.8403 37.1083 46.9983 37.2873 47.1062 37.496C47.2176 37.7317 47.2712 37.9903 47.2626 38.2505C47.2687 38.5361 47.2039 38.8188 47.074 39.0736C46.9527 39.3036 46.7776 39.5012 46.5633 39.6498C46.3344 39.8088 46.0767 39.9222 45.8043 39.9836C45.4911 40.059 45.1697 40.0959 44.8474 40.0933C44.353 40.0947 43.8617 40.0143 43.3938 39.8555C42.9383 39.7 42.5145 39.4646 42.1425 39.1605L42.5427 38.4563C42.6607 38.5757 42.7919 38.6816 42.9338 38.7718C43.1051 38.8835 43.2868 38.9785 43.4766 39.0553C43.6888 39.1402 43.9071 39.209 44.1298 39.2611C44.3717 39.313 44.6184 39.3391 44.8658 39.3388C45.2504 39.3611 45.6335 39.2739 45.9699 39.0873C46.1631 38.9553 46.2983 38.755 46.3478 38.5272C46.3974 38.2994 46.3577 38.0615 46.2367 37.8618C46.14 37.7264 46.0143 37.614 45.8687 37.5326C45.6774 37.4289 45.4753 37.3461 45.2661 37.2857C45.0223 37.2171 44.7508 37.1439 44.4426 37.0708C44.1418 36.9995 43.8453 36.9109 43.5548 36.8056C43.3253 36.7285 43.1095 36.6158 42.9154 36.4717C42.7504 36.3523 42.6164 36.1955 42.5243 36.0145C42.4327 35.8024 42.3888 35.573 42.3955 35.3423C42.3896 35.0533 42.451 34.767 42.5749 34.5055C42.6882 34.2656 42.8568 34.0556 43.0672 33.8928C43.2933 33.7189 43.551 33.59 43.8262 33.5132C44.1379 33.4285 44.4599 33.387 44.783 33.3898C45.1971 33.3838 45.6088 33.4536 45.9975 33.5955C46.3491 33.7213 46.676 33.907 46.9636 34.1442L46.5633 34.7936Z" fill="#FE952B"/>
<path d="M52.47 40.0112H51.6466V37.295C51.6746 36.9038 51.5832 36.5134 51.3844 36.1747C51.2977 36.0543 51.1819 35.9576 51.0475 35.8936C50.9132 35.8297 50.7648 35.8005 50.6161 35.8089C50.4504 35.8098 50.2864 35.8424 50.1331 35.9049C49.967 35.9694 49.8119 36.0588 49.6731 36.1701C49.5293 36.2849 49.4037 36.4206 49.3005 36.5725C49.1896 36.7283 49.1056 36.9014 49.0521 37.0846V40.0112H48.2332V33.2207H49.0566V36.1975C49.2398 35.8568 49.5114 35.571 49.8433 35.3699C50.1704 35.1725 50.5463 35.0696 50.9289 35.0726C51.1808 35.0656 51.4305 35.1206 51.6558 35.2327C51.8425 35.3339 52.0007 35.4801 52.1158 35.658C52.2407 35.857 52.328 36.0771 52.3734 36.3073C52.4263 36.5723 52.4524 36.8419 52.4516 37.1121L52.47 40.0112Z" fill="#FE952B"/>
<path d="M55.0093 40.1072C54.7875 40.1084 54.5675 40.0681 54.3607 39.9883C54.1686 39.9153 53.9922 39.8067 53.8409 39.6682C53.6973 39.5393 53.5801 39.3841 53.4959 39.2109C53.4101 39.0228 53.3661 38.8185 53.3671 38.6119C53.3642 38.3996 53.4165 38.1901 53.5189 38.0037C53.6259 37.8219 53.772 37.6657 53.9467 37.5465C54.146 37.4093 54.3667 37.3058 54.5999 37.2401C54.8693 37.1647 55.1481 37.1278 55.4279 37.1304C55.6702 37.1292 55.912 37.1506 56.1502 37.1944C56.3711 37.2289 56.5872 37.2887 56.7942 37.3727V36.9795C56.8166 36.804 56.7988 36.6258 56.7423 36.4581C56.6857 36.2904 56.5918 36.1376 56.4675 36.011C56.3433 35.8844 56.1919 35.7873 56.0246 35.727C55.8574 35.6666 55.6786 35.6446 55.5016 35.6625C54.9387 35.6898 54.3977 35.8877 53.9513 36.2295L53.6799 35.6991C54.2344 35.3026 54.8968 35.0825 55.5798 35.0681C56.1281 35.0347 56.6675 35.2189 57.0794 35.5802C57.2668 35.7715 57.4115 35.9998 57.5042 36.2503C57.597 36.5009 57.6356 36.768 57.6176 37.0343V39.0189C57.6176 39.2109 57.7051 39.3115 57.8799 39.3161V40.0203L57.6637 40.0523H57.4888C57.4171 40.0556 57.3454 40.0443 57.2782 40.0192C57.211 39.994 57.1496 39.9555 57.0978 39.906C57.0028 39.8129 56.9428 39.6902 56.9276 39.5585V39.2109C56.7129 39.4995 56.428 39.7292 56.0996 39.8786C55.7573 40.0328 55.3852 40.1108 55.0093 40.1072ZM55.2209 39.4945C55.5078 39.496 55.7916 39.4367 56.0536 39.3207C56.2851 39.2236 56.4855 39.0654 56.6332 38.8634C56.6851 38.8178 56.7273 38.7624 56.7573 38.7003C56.7873 38.6383 56.8046 38.5709 56.808 38.5022V37.7843C56.4124 37.6296 55.991 37.5505 55.566 37.5511C55.2114 37.5351 54.8602 37.6259 54.5585 37.8117C54.4397 37.882 54.3412 37.9817 54.2727 38.1011C54.2041 38.2205 54.1679 38.3556 54.1675 38.493C54.1659 38.6241 54.1942 38.7539 54.2503 38.8726C54.3007 38.9906 54.3778 39.0954 54.4757 39.1789C54.5738 39.27 54.6897 39.34 54.8161 39.3847C54.9431 39.4458 55.0804 39.483 55.2209 39.4945Z" fill="#FE952B"/>
<path d="M61.5232 35.8727C61.1378 35.8781 60.7611 35.9871 60.433 36.1882C60.1225 36.3818 59.886 36.6732 59.7614 37.0158V40.0109H58.9379V35.1547H59.7062V36.2842C59.8607 35.9656 60.0874 35.687 60.3686 35.4703C60.6224 35.2702 60.9293 35.1479 61.2518 35.1182H61.4082H61.5232V35.8727Z" fill="#FE952B"/>
<path d="M64.3846 40.107C64.0369 40.1102 63.6923 40.0416 63.3726 39.9058C63.0775 39.7789 62.8114 39.5938 62.5905 39.3616C62.3682 39.1298 62.1946 38.8562 62.0799 38.5569C61.9558 38.2471 61.8933 37.9163 61.8959 37.5829C61.8933 37.2524 61.9558 36.9246 62.0799 36.618C62.1946 36.319 62.37 36.0466 62.5951 35.8178C62.8194 35.5854 63.0885 35.4003 63.3864 35.2737C63.7044 35.1374 64.0475 35.0689 64.3938 35.0725C64.7406 35.0681 65.0843 35.1383 65.4013 35.2782C65.6933 35.4057 65.9562 35.5909 66.1741 35.8224C66.389 36.0513 66.5562 36.3201 66.6663 36.6135C66.7777 36.9057 66.8353 37.2155 66.8365 37.528C66.8365 37.5966 66.8365 37.6606 66.8365 37.7155C66.8426 37.7579 66.8426 37.801 66.8365 37.8435H62.7837C62.798 38.0732 62.8557 38.2981 62.9539 38.5066C63.0426 38.6979 63.1658 38.8715 63.3174 39.0187C63.467 39.1583 63.6397 39.2712 63.828 39.3525C64.018 39.435 64.2233 39.4771 64.4306 39.476C64.5863 39.4773 64.7413 39.4557 64.8906 39.4119C65.0304 39.3758 65.1649 39.322 65.2909 39.2519C65.4146 39.185 65.5278 39.1002 65.6267 39.0004C65.721 38.9041 65.7959 38.7908 65.8475 38.6666L66.5559 38.8587C66.4756 39.0413 66.3634 39.2085 66.2247 39.3525C66.0767 39.5187 65.9046 39.662 65.7141 39.7778C65.5222 39.888 65.3164 39.9726 65.1022 40.0293C64.868 40.0889 64.6263 40.1151 64.3846 40.107ZM66.0591 37.2582C66.0434 37.0375 65.9856 36.8218 65.8889 36.6226C65.798 36.4355 65.6732 36.2665 65.5209 36.1242C65.3746 35.9859 65.2028 35.8772 65.0148 35.8041C64.8174 35.7252 64.6066 35.6848 64.3938 35.6852C64.0815 35.682 63.775 35.7694 63.5119 35.9367C63.2488 36.104 63.0405 36.344 62.9125 36.6272C62.8189 36.8256 62.7627 37.0396 62.7469 37.2582H66.0591Z" fill="#FE952B"/>
<path d="M70.1211 33.4082L72.3246 38.964L74.5143 33.4082H75.4021L72.688 40.0112H71.9565L69.2332 33.4082H70.1211Z" fill="#FE952B"/>
<path d="M76.9294 40.107C76.7076 40.1082 76.4875 40.0679 76.2807 39.9882C76.0886 39.9151 75.9122 39.8065 75.7609 39.6681C75.6173 39.5392 75.5001 39.3839 75.4159 39.2108C75.3316 39.0223 75.2892 38.818 75.2917 38.6118C75.2874 38.3999 75.3381 38.1904 75.4389 38.0036C75.5459 37.8217 75.692 37.6656 75.8667 37.5463C76.066 37.4092 76.2867 37.3057 76.5199 37.24C76.7893 37.1646 77.0681 37.1276 77.348 37.1302C77.5902 37.129 77.832 37.1505 78.0702 37.1942C78.2911 37.2288 78.5072 37.2886 78.7142 37.3726V36.9793C78.73 36.8071 78.7073 36.6335 78.6477 36.471C78.5882 36.3085 78.4933 36.161 78.3698 36.0392C78.2463 35.9173 78.0973 35.8241 77.9334 35.766C77.7695 35.708 77.5947 35.6867 77.4216 35.7035C76.8587 35.7308 76.3177 35.9287 75.8713 36.2706L75.5999 35.7401C76.1544 35.3436 76.8169 35.1236 77.4998 35.1091C78.0482 35.0757 78.5875 35.2599 78.9995 35.6212C79.185 35.8109 79.3287 36.037 79.4214 36.285C79.5141 36.533 79.5537 36.7975 79.5377 37.0616V39.0462C79.5377 39.2382 79.6251 39.3388 79.7999 39.3434V40.0476L79.5837 40.0796H79.4089C79.3371 40.0829 79.2654 40.0716 79.1982 40.0464C79.131 40.0213 79.0696 39.9828 79.0179 39.9333C78.9229 39.8402 78.8628 39.7175 78.8477 39.5858V39.2382C78.6329 39.5268 78.348 39.7565 78.0196 39.9058C77.6752 40.0506 77.3032 40.1193 76.9294 40.107ZM77.141 39.4943C77.4225 39.4972 77.7015 39.4411 77.9598 39.3297C78.1913 39.2326 78.3917 39.0745 78.5394 38.8724C78.5913 38.8268 78.6335 38.7714 78.6635 38.7093C78.6935 38.6473 78.7108 38.5799 78.7142 38.5112V37.7933C78.3187 37.6386 77.8973 37.5595 77.4722 37.5601C77.1176 37.5441 76.7665 37.6349 76.4647 37.8207C76.3459 37.891 76.2474 37.9907 76.1789 38.1101C76.1104 38.2295 76.0741 38.3646 76.0737 38.502C76.0722 38.6331 76.1005 38.7629 76.1565 38.8816C76.2069 38.9996 76.2841 39.1044 76.3819 39.1879C76.48 39.279 76.5959 39.349 76.7224 39.3937C76.8542 39.4532 76.9963 39.4874 77.141 39.4943Z" fill="#FE952B"/>
<path d="M80.8947 33.2207H81.7182V38.7582C81.71 38.9122 81.7629 39.0632 81.8654 39.1789C81.9174 39.2326 81.9806 39.2742 82.0505 39.3011C82.1204 39.3279 82.1954 39.3393 82.2702 39.3344C82.3525 39.3336 82.4343 39.3228 82.514 39.3024C82.6106 39.2795 82.6934 39.2521 82.7762 39.2246L82.9096 39.8831C82.7512 39.9434 82.5881 39.9908 82.422 40.0249C82.2585 40.0588 82.0922 40.0771 81.9252 40.0797C81.7877 40.0867 81.6502 40.0664 81.5207 40.02C81.3912 39.9737 81.2723 39.9023 81.1707 39.81C81.0758 39.7093 81.0023 39.5905 80.9549 39.4608C80.9074 39.3312 80.887 39.1932 80.8947 39.0555V33.2207Z" fill="#FE952B"/>
<path d="M85.0349 40.1071C84.8138 40.1208 84.5926 40.0815 84.3901 39.9923C84.1875 39.9032 84.0095 39.7669 83.8711 39.5949C83.5783 39.1411 83.4411 38.6053 83.4801 38.0676V35.1548H84.3035V37.8984C84.3035 38.8907 84.6485 39.3846 85.3431 39.3846C85.6857 39.3833 86.0184 39.2709 86.2908 39.0645C86.593 38.8423 86.8233 38.5371 86.9532 38.1865V35.1411H87.7951V38.9959C87.7951 39.1879 87.8825 39.2885 88.0573 39.2931V39.9973L87.8365 40.0247H87.68C87.5313 40.029 87.3865 39.9767 87.2752 39.8784C87.221 39.8358 87.1771 39.7817 87.1469 39.7199C87.1166 39.6582 87.1007 39.5904 87.1004 39.5218V38.9547C86.8954 39.3073 86.5981 39.598 86.2402 39.7961C85.8737 40.0051 85.4574 40.1125 85.0349 40.1071Z" fill="#FE952B"/>
<path d="M91.3234 40.1071C90.9757 40.1107 90.631 40.0421 90.3114 39.9059C90.0156 39.7779 89.7482 39.593 89.5247 39.3618C89.3054 39.1276 89.1322 38.8546 89.0141 38.557C88.8937 38.2463 88.8329 37.9159 88.8347 37.583C88.8328 37.253 88.8937 36.9257 89.0141 36.6181C89.1322 36.3208 89.3072 36.0491 89.5293 35.8179C89.7545 35.5866 90.0234 35.4016 90.3206 35.2738C90.6403 35.1379 90.9849 35.0694 91.3326 35.0726C91.8246 35.0647 92.3069 35.2087 92.713 35.4847C93.1192 35.7607 93.4293 36.1551 93.6005 36.6136C93.7133 36.9056 93.7725 37.2153 93.7753 37.5281C93.7753 37.5967 93.7753 37.6607 93.7753 37.7156C93.7753 37.7705 93.7753 37.8162 93.7753 37.8436H89.7225C89.7372 38.0727 89.7933 38.2973 89.8881 38.5067C89.9784 38.6982 90.1032 38.8718 90.2562 39.0188C90.4043 39.1604 90.5774 39.2735 90.7668 39.3526C90.9568 39.4351 91.1621 39.4772 91.3694 39.4761C91.525 39.4767 91.68 39.4551 91.8294 39.4121C91.9692 39.3759 92.1037 39.3221 92.2297 39.252C92.3513 39.1839 92.4627 39.0992 92.5609 39.0005C92.6552 38.9042 92.7301 38.7909 92.7817 38.6667L93.4947 38.8588C93.4127 39.0417 93.2991 39.2088 93.1589 39.3526C93.018 39.5051 92.8553 39.6361 92.6759 39.7413C92.4824 39.8516 92.2751 39.9361 92.0595 39.9928C91.8213 40.0673 91.5731 40.1059 91.3234 40.1071ZM92.9979 37.2583C92.9806 37.0374 92.9213 36.8217 92.8231 36.6227C92.7338 36.4358 92.6106 36.2668 92.4597 36.1243C92.2295 35.9122 91.9433 35.7695 91.6346 35.7128C91.326 35.6561 91.0074 35.6878 90.7162 35.8042C90.526 35.8778 90.3525 35.9881 90.2056 36.1289C90.0567 36.2722 89.9352 36.441 89.8467 36.6273C89.7566 36.8267 89.7022 37.0403 89.6857 37.2583H92.9979Z" fill="#FE952B"/>
<path d="M94.6264 40.0112V38.9731H95.3164V40.0112H94.6264Z" fill="#FE952B"/>
<path d="M104.181 38.3099C104.184 38.5516 104.132 38.7907 104.029 39.0096C103.927 39.2165 103.783 39.4002 103.606 39.5492C103.423 39.6996 103.214 39.8158 102.99 39.8921C102.747 39.9741 102.492 40.0143 102.235 40.011H99.0794V33.408H102.387C102.604 33.4059 102.819 33.4561 103.013 33.5543C103.19 33.6534 103.346 33.7853 103.473 33.943C103.737 34.2679 103.881 34.6729 103.882 35.0908C103.884 35.4124 103.798 35.7286 103.634 36.0053C103.471 36.2811 103.224 36.4988 102.93 36.6272C103.299 36.7216 103.624 36.9397 103.85 37.2445C104.073 37.5547 104.189 37.9286 104.181 38.3099ZM99.9258 34.1351V36.3391H102.056C102.199 36.3411 102.341 36.3098 102.47 36.2477C102.591 36.1917 102.701 36.1125 102.792 36.0145C102.873 35.9087 102.936 35.7895 102.976 35.6624C103.027 35.528 103.054 35.3855 103.054 35.2417C103.058 35.086 103.033 34.931 102.98 34.7844C102.935 34.656 102.866 34.5367 102.778 34.4323C102.694 34.3323 102.589 34.2525 102.47 34.1991C102.348 34.1442 102.217 34.1161 102.083 34.1168L99.9258 34.1351ZM103.33 38.1636C103.329 38.0154 103.303 37.8684 103.252 37.7292C103.201 37.5961 103.128 37.4724 103.036 37.3634C102.947 37.2585 102.837 37.1729 102.714 37.1119C102.585 37.047 102.443 37.0141 102.3 37.0159H99.9258V39.3022H102.226C102.376 39.3036 102.524 39.2708 102.658 39.2062C102.788 39.1462 102.905 39.0624 103.003 38.9593C103.105 38.8576 103.185 38.7362 103.238 38.6026C103.298 38.4638 103.329 38.3146 103.33 38.1636Z" fill="#FE952B"/>
<path d="M106.739 40.1071C106.518 40.1208 106.296 40.0815 106.094 39.9923C105.891 39.9032 105.713 39.7669 105.575 39.5949C105.282 39.1411 105.145 38.6053 105.184 38.0676V35.1548H106.007V37.8984C106.007 38.8907 106.352 39.3846 107.047 39.3846C107.389 39.3833 107.722 39.2709 107.995 39.0645C108.298 38.8437 108.529 38.538 108.657 38.1865V35.1411H109.48V38.9959C109.48 39.1879 109.568 39.2885 109.743 39.2931V39.9973L109.522 40.0247H109.365C109.217 40.0281 109.072 39.9759 108.961 39.8784C108.908 39.8342 108.866 39.7797 108.836 39.7183C108.806 39.6569 108.789 39.59 108.786 39.5218V38.9547C108.581 39.3073 108.284 39.598 107.926 39.7961C107.565 40.002 107.155 40.1093 106.739 40.1071Z" fill="#FE952B"/>
<path d="M110.856 34.245V33.2207H111.679V34.245H110.856ZM110.856 40.0112V35.155H111.679V40.0112H110.856Z" fill="#FE952B"/>
<path d="M113.027 33.2207H113.851V38.7582C113.843 38.9122 113.895 39.0632 113.998 39.1789C114.05 39.2328 114.113 39.2747 114.183 39.3015C114.253 39.3284 114.328 39.3396 114.403 39.3344C114.485 39.3336 114.567 39.3228 114.647 39.3024L114.909 39.2246L115.038 39.8831C114.881 39.9435 114.719 39.9909 114.555 40.0249C114.391 40.0588 114.225 40.0771 114.058 40.0797C113.92 40.0867 113.783 40.0664 113.653 40.02C113.524 39.9737 113.405 39.9023 113.303 39.81C113.208 39.7093 113.135 39.5905 113.087 39.4608C113.04 39.3312 113.019 39.1932 113.027 39.0555V33.2207Z" fill="#FE952B"/>
<path d="M117.696 40.1072C117.378 40.1081 117.064 40.0378 116.776 39.9014C116.495 39.7694 116.243 39.5828 116.036 39.3527C115.825 39.1188 115.661 38.8473 115.553 38.5525C115.438 38.2454 115.38 37.9199 115.383 37.5922C115.38 37.2622 115.434 36.9343 115.544 36.6228C115.646 36.3287 115.802 36.0558 116.004 35.818C116.197 35.5909 116.435 35.4057 116.703 35.2738C116.982 35.1386 117.289 35.0697 117.6 35.0726C117.974 35.0659 118.342 35.1727 118.653 35.379C118.949 35.5713 119.199 35.8257 119.385 36.1244V33.2207H120.208V39.0097C120.208 39.2018 120.296 39.3024 120.47 39.307V40.0112L120.263 40.0432H120.107C119.949 40.0441 119.796 39.9853 119.679 39.8785C119.624 39.8325 119.579 39.7752 119.548 39.7105C119.517 39.6458 119.501 39.5752 119.5 39.5036V39.092C119.312 39.4022 119.046 39.6577 118.727 39.8328C118.413 40.0104 118.058 40.1049 117.696 40.1072ZM117.894 39.3984C118.051 39.3961 118.206 39.3683 118.354 39.3161C118.518 39.2617 118.674 39.1831 118.814 39.0829C118.953 38.9852 119.077 38.8682 119.182 38.7354C119.281 38.6112 119.349 38.4654 119.38 38.3101V36.9383C119.323 36.7723 119.238 36.6175 119.127 36.481C119.019 36.3437 118.892 36.2221 118.75 36.1198C118.608 36.0189 118.453 35.9374 118.29 35.8774C118.143 35.8211 117.987 35.7916 117.83 35.7906C117.6 35.7874 117.373 35.8392 117.167 35.9415C116.974 36.0447 116.802 36.1845 116.661 36.353C116.519 36.5272 116.41 36.7255 116.339 36.9383C116.266 37.1564 116.229 37.385 116.229 37.6151C116.22 38.0778 116.384 38.5273 116.689 38.8771C116.838 39.0396 117.018 39.1717 117.218 39.2658C117.43 39.3605 117.662 39.4058 117.894 39.3984Z" fill="#FE952B"/>
<path d="M127.973 34.7937C127.886 34.6965 127.785 34.6118 127.674 34.5422C127.54 34.4599 127.4 34.3866 127.256 34.3227C127.09 34.2567 126.919 34.2047 126.745 34.1673C126.555 34.1246 126.36 34.1032 126.165 34.1032C125.764 34.0725 125.365 34.1754 125.029 34.3959C124.911 34.4903 124.817 34.6111 124.754 34.7486C124.692 34.8861 124.663 35.0363 124.67 35.187C124.662 35.3457 124.697 35.5038 124.772 35.6442C124.85 35.7712 124.961 35.8753 125.094 35.946C125.267 36.0435 125.453 36.1173 125.646 36.1655C125.862 36.2295 126.106 36.2936 126.418 36.3622C126.73 36.4291 127.037 36.5146 127.338 36.6182C127.592 36.7026 127.832 36.8227 128.052 36.9749C128.246 37.1084 128.404 37.2875 128.512 37.4962C128.623 37.7318 128.677 37.9904 128.668 38.2507C128.674 38.5363 128.609 38.819 128.479 39.0738C128.358 39.3037 128.183 39.5014 127.969 39.6499C127.738 39.809 127.479 39.9223 127.205 39.9837C126.893 40.0592 126.574 40.096 126.253 40.0935C125.757 40.0945 125.264 40.0141 124.795 39.8557C124.341 39.6991 123.919 39.4637 123.548 39.1606L123.948 38.4564C124.066 38.5759 124.197 38.6817 124.339 38.772C124.51 38.8846 124.692 38.9796 124.882 39.0555C125.094 39.141 125.312 39.2098 125.535 39.2612C125.777 39.3132 126.024 39.3392 126.271 39.339C126.656 39.3613 127.039 39.274 127.375 39.0875C127.502 39.0078 127.605 38.8958 127.674 38.7632C127.743 38.6305 127.775 38.482 127.766 38.333C127.769 38.1719 127.726 38.0134 127.642 37.8757C127.545 37.7403 127.42 37.6279 127.274 37.5465C127.081 37.4428 126.878 37.3601 126.667 37.2996C126.428 37.231 126.156 37.1578 125.848 37.0846C125.547 37.0134 125.251 36.9248 124.96 36.8194C124.73 36.743 124.514 36.6303 124.321 36.4856C124.155 36.3673 124.02 36.2103 123.93 36.0283C123.838 35.8163 123.794 35.5869 123.801 35.3562C123.796 35.0678 123.856 34.7819 123.976 34.5194C124.092 34.2801 124.262 34.0705 124.473 33.9066C124.698 33.732 124.956 33.603 125.232 33.5271C125.543 33.4424 125.865 33.4009 126.188 33.4036C126.602 33.3981 127.014 33.4679 127.403 33.6094C127.755 33.7352 128.081 33.9209 128.369 34.1581L127.973 34.7937Z" fill="#FE952B"/>
<path d="M131.147 40.1071C130.927 40.1201 130.707 40.0804 130.505 39.9912C130.303 39.9021 130.126 39.7662 129.988 39.5949C129.694 39.1417 129.555 38.6058 129.593 38.0676V35.1548H130.416V37.8984C130.416 38.8907 130.761 39.3846 131.456 39.3846C131.799 39.3826 132.133 39.2703 132.408 39.0645C132.709 38.842 132.938 38.5368 133.066 38.1865V35.1411H133.889V38.9959C133.889 39.1879 133.977 39.2885 134.151 39.2931V39.9973L133.931 40.0247H133.797C133.647 40.0288 133.501 39.9766 133.388 39.8784C133.335 39.8342 133.293 39.7797 133.263 39.7183C133.233 39.6569 133.216 39.59 133.213 39.5218V38.9547C133.009 39.3083 132.712 39.5993 132.353 39.7961C131.986 40.0051 131.57 40.1125 131.147 40.1071Z" fill="#FE952B"/>
<path d="M134.938 37.5739C134.936 37.2439 134.997 36.9166 135.117 36.6091C135.227 36.3122 135.398 36.0413 135.619 35.8134C135.841 35.5837 136.107 35.4003 136.401 35.2739C136.722 35.1371 137.068 35.0686 137.418 35.0727C137.859 35.0625 138.295 35.1732 138.678 35.3927C139.021 35.6006 139.298 35.9 139.478 36.257L138.673 36.5039C138.553 36.2796 138.371 36.094 138.149 35.9689C137.919 35.8435 137.661 35.779 137.399 35.7814C137.181 35.7808 136.964 35.826 136.764 35.914C136.566 36.0011 136.39 36.1307 136.249 36.2936C136.1 36.4601 135.983 36.6523 135.904 36.8606C135.735 37.3229 135.735 37.8295 135.904 38.2918C135.986 38.505 136.106 38.7017 136.258 38.8726C136.403 39.0347 136.578 39.1668 136.774 39.2612C136.971 39.3533 137.186 39.4002 137.404 39.3984C137.548 39.3989 137.693 39.3789 137.832 39.339C137.965 39.3001 138.093 39.2448 138.213 39.1744C138.324 39.1093 138.426 39.031 138.517 38.9412C138.601 38.8573 138.666 38.7557 138.706 38.6439L139.511 38.8863C139.435 39.0673 139.329 39.2343 139.198 39.3801C139.063 39.529 138.909 39.6583 138.738 39.7642C138.549 39.873 138.346 39.956 138.135 40.0112C137.908 40.0757 137.672 40.108 137.436 40.1072C137.088 40.1111 136.743 40.0409 136.424 39.9014C136.129 39.7702 135.862 39.5839 135.637 39.3527C135.418 39.1185 135.245 38.8455 135.127 38.5479C135.003 38.2378 134.939 37.9074 134.938 37.5739Z" fill="#FE952B"/>
<path d="M140.076 37.5739C140.075 37.2439 140.135 36.9166 140.256 36.6091C140.366 36.3122 140.537 36.0413 140.757 35.8134C140.979 35.5837 141.245 35.4003 141.539 35.2739C141.86 35.1371 142.207 35.0686 142.556 35.0727C142.998 35.0625 143.434 35.1732 143.816 35.3927C144.159 35.6006 144.437 35.9 144.617 36.257L143.812 36.5039C143.692 36.2796 143.51 36.094 143.287 35.9689C143.058 35.8435 142.8 35.779 142.538 35.7814C142.319 35.7808 142.103 35.826 141.903 35.914C141.705 36.0011 141.529 36.1307 141.388 36.2936C141.239 36.4601 141.122 36.6523 141.043 36.8606C140.874 37.3229 140.874 37.8295 141.043 38.2918C141.124 38.505 141.244 38.7017 141.397 38.8726C141.541 39.0347 141.716 39.1668 141.912 39.2612C142.109 39.3533 142.324 39.4002 142.542 39.3984C142.697 39.3957 142.851 39.3695 142.998 39.3207C143.131 39.2818 143.26 39.2265 143.379 39.1561C143.49 39.091 143.592 39.0127 143.683 38.9229C143.767 38.839 143.832 38.7374 143.872 38.6256L144.677 38.868C144.601 39.049 144.495 39.216 144.364 39.3618C144.229 39.5107 144.075 39.64 143.904 39.7459C143.715 39.8547 143.512 39.9378 143.301 39.9929C143.074 40.0574 142.838 40.0897 142.602 40.0889C142.254 40.0928 141.909 40.0227 141.59 39.8831C141.295 39.7519 141.028 39.5656 140.803 39.3344C140.584 39.1002 140.411 38.8272 140.293 38.5296C140.162 38.227 140.089 37.903 140.076 37.5739Z" fill="#FE952B"/>
<path d="M147.704 40.107C147.356 40.1102 147.011 40.0416 146.692 39.9058C146.396 39.7778 146.128 39.5929 145.905 39.3616C145.686 39.1274 145.512 38.8545 145.394 38.5568C145.274 38.2461 145.213 37.9158 145.215 37.5829C145.213 37.2529 145.274 36.9255 145.394 36.618C145.512 36.3191 145.688 36.0464 145.912 35.8156C146.136 35.5848 146.404 35.4006 146.701 35.2737C147.021 35.1378 147.365 35.0693 147.713 35.0725C148.06 35.0681 148.403 35.1383 148.72 35.2782C149.012 35.4057 149.275 35.5909 149.493 35.8224C149.707 36.0515 149.872 36.3203 149.981 36.6135C150.096 36.9049 150.155 37.215 150.156 37.528C150.156 37.5966 150.156 37.6606 150.156 37.7155C150.156 37.7703 150.156 37.8161 150.156 37.8435H146.103C146.117 38.0732 146.175 38.2981 146.273 38.5066C146.36 38.6988 146.483 38.8727 146.636 39.0187C146.786 39.1583 146.959 39.2712 147.147 39.3525C147.337 39.435 147.542 39.4771 147.75 39.476C147.905 39.4773 148.06 39.4557 148.21 39.4119C148.349 39.3758 148.484 39.322 148.61 39.2519C148.731 39.1838 148.843 39.0991 148.941 39.0004C149.035 38.9041 149.11 38.7908 149.162 38.6666L149.875 38.8586C149.793 39.0404 149.681 39.2073 149.544 39.3525C149.4 39.504 149.236 39.6348 149.056 39.7412C148.864 39.8514 148.658 39.936 148.444 39.9927C148.204 40.0669 147.955 40.1054 147.704 40.107ZM149.378 37.2582C149.362 37.0375 149.305 36.8218 149.208 36.6226C149.117 36.4355 148.992 36.2665 148.84 36.1242C148.652 35.9455 148.423 35.8143 148.174 35.7415C147.924 35.6687 147.66 35.6564 147.405 35.7056C147.15 35.7549 146.91 35.8643 146.706 36.0246C146.501 36.1849 146.339 36.3916 146.232 36.6272C146.138 36.8256 146.082 37.0395 146.066 37.2582H149.378Z" fill="#FE952B"/>
<path d="M152.787 40.1072C152.392 40.1079 151.999 40.0461 151.623 39.9243C151.265 39.8142 150.932 39.6356 150.643 39.3984L150.997 38.8497C151.259 39.0524 151.549 39.2171 151.858 39.3389C152.151 39.45 152.463 39.5059 152.778 39.5036C153.074 39.5167 153.369 39.4437 153.624 39.2932C153.723 39.2298 153.803 39.1422 153.858 39.0389C153.913 38.9356 153.94 38.8201 153.937 38.7033C153.94 38.5954 153.911 38.489 153.854 38.397C153.788 38.3061 153.702 38.2324 153.601 38.1821C153.464 38.1097 153.319 38.0529 153.169 38.0129L152.561 37.8528C152.267 37.7797 152.014 37.7111 151.802 37.6425C151.617 37.5856 151.441 37.504 151.278 37.4001C151.15 37.3154 151.047 37.1987 150.979 37.0617C150.914 36.9102 150.882 36.7464 150.887 36.5816C150.882 36.357 150.931 36.1345 151.03 35.9323C151.126 35.7511 151.263 35.5946 151.43 35.475C151.607 35.3414 151.808 35.2435 152.023 35.1869C152.262 35.1175 152.51 35.0836 152.759 35.0863C153.109 35.0833 153.457 35.1438 153.785 35.2647C154.081 35.364 154.354 35.5193 154.59 35.7219L154.218 36.2112C154.014 36.0359 153.781 35.8995 153.528 35.8088C153.275 35.7179 153.009 35.6714 152.741 35.6716C152.473 35.6626 152.208 35.7292 151.977 35.8637C151.874 35.9266 151.79 36.0166 151.735 36.124C151.679 36.2313 151.655 36.3517 151.664 36.4719C151.66 36.5684 151.681 36.6645 151.724 36.7508C151.771 36.8346 151.841 36.903 151.927 36.9474C152.04 37.0114 152.16 37.062 152.285 37.0983L152.814 37.2355C153.137 37.3087 153.422 37.3864 153.661 37.4641C153.872 37.5281 154.073 37.6204 154.259 37.7385C154.407 37.8307 154.531 37.9579 154.618 38.1089C154.699 38.2706 154.738 38.4497 154.733 38.6302C154.74 38.8388 154.696 39.046 154.604 39.234C154.513 39.422 154.377 39.5851 154.208 39.7093C153.793 39.9978 153.292 40.1381 152.787 40.1072Z" fill="#FE952B"/>
<path d="M157.41 40.1071C157.016 40.1082 156.625 40.0464 156.251 39.9242C155.891 39.8152 155.556 39.6365 155.266 39.3984L155.621 38.8496C155.883 39.0523 156.172 39.2171 156.481 39.3389C156.775 39.45 157.087 39.5058 157.401 39.5035C157.698 39.5167 157.992 39.4436 158.247 39.2932C158.346 39.2297 158.427 39.1422 158.481 39.0389C158.536 38.9356 158.563 38.82 158.56 38.7033C158.563 38.5954 158.534 38.4889 158.477 38.3969C158.412 38.3061 158.325 38.2324 158.224 38.182C158.087 38.1096 157.942 38.0529 157.792 38.0128L157.185 37.8528C156.89 37.7796 156.637 37.711 156.426 37.6424C156.241 37.5855 156.064 37.504 155.901 37.4001C155.773 37.3154 155.67 37.1987 155.602 37.0617C155.537 36.9102 155.506 36.7463 155.51 36.5816C155.506 36.357 155.554 36.1345 155.653 35.9322C155.749 35.7511 155.886 35.5945 156.053 35.475C156.231 35.3423 156.432 35.2445 156.646 35.1869C156.886 35.1177 157.133 35.0839 157.382 35.0863C157.734 35.0836 158.083 35.1441 158.413 35.2646C158.708 35.366 158.981 35.5211 159.218 35.7219L158.841 36.2112C158.638 36.0359 158.404 35.8995 158.151 35.8088C157.899 35.7178 157.632 35.6714 157.364 35.6716C157.096 35.6631 156.832 35.7296 156.6 35.8637C156.497 35.9265 156.413 36.0166 156.358 36.1239C156.303 36.2312 156.278 36.3516 156.288 36.4718C156.283 36.5684 156.304 36.6644 156.347 36.7508C156.394 36.8346 156.464 36.903 156.55 36.9474C156.663 37.0114 156.784 37.062 156.909 37.0983L157.438 37.2355C157.764 37.3086 158.045 37.3864 158.284 37.4641C158.495 37.528 158.696 37.6203 158.882 37.7385C159.031 37.8307 159.154 37.9579 159.241 38.1089C159.322 38.2706 159.361 38.4496 159.356 38.6301C159.363 38.8388 159.319 39.046 159.228 39.234C159.136 39.4219 159 39.5851 158.832 39.7093C158.417 39.9978 157.916 40.138 157.41 40.1071Z" fill="#FE952B"/>
<path d="M1.93209 12.4322C1.37113 12.1477 0.896487 11.7199 0.556929 11.1927C0.217371 10.6655 0.0251434 10.058 0 9.43252V1.47604C0 0.282568 0.864839 -0.30731 1.93209 0.154532L21.023 8.4311C24.3489 9.87607 26.0096 12.4002 26.0096 15.3587V25.9308C26.0096 24.0423 24.3489 22.1492 21.023 20.7088L1.93209 12.4322Z" fill="#FE952B"/>
<path d="M11.1969 35.4109V45.3793C11.1709 46.0052 10.9777 46.6128 10.6374 47.14C10.2971 47.6671 9.82174 48.0948 9.26023 48.379L1.93209 51.557C0.864839 52.0143 0 51.429 0 50.2355V30.1477C0.0256165 29.5223 0.218035 28.915 0.557541 28.3879C0.897048 27.8608 1.37143 27.4329 1.93209 27.148L18.9023 19.7905L21.023 20.7051C24.3489 22.1455 26.0096 24.0386 26.0096 25.9271C26.0096 27.8156 24.3489 29.7041 21.023 31.1445L11.1969 35.4109Z" fill="#FE952B"/>
</g>
<defs>
<clipPath id="clip0_285_200">
<rect width="160" height="51.7172" fill="white"/>
</clipPath>
</defs>
</svg>
