<svg width="198" height="64" viewBox="0 0 198 64" fill="none" xmlns="http://www.w3.org/2000/svg">
<g clipPath="url(#clip0_208_2)">
<path d="M66.0304 19.6583H60.9923V32.8148H57.161V19.6583H52.0945V16.3197H66.0304V19.6583Z" fill="#FE952B"/>
<path d="M70.5391 16.3197H74.672L80.3648 32.7979H76.4424L75.1559 29.1027H69.9982L68.7401 32.8148H64.8121L70.5391 16.3197ZM74.524 26.5054L72.5884 20.1676L70.6017 26.5054H74.524Z" fill="#FE952B"/>
<path d="M82.0043 32.8148V16.3197H85.8298V23.4214L91.904 16.3197H96.1963L89.9912 23.676L96.6176 32.8148H92.2285L87.5832 26.1828L85.8754 27.9427V32.8148H82.0043Z" fill="#FE952B"/>
<path d="M109.506 29.4536V32.8148H97.8586V16.3197H109.295V19.6583H101.684V22.8612H108.225V25.9508H101.684V29.4536H109.506Z" fill="#FE952B"/>
<path d="M117.282 32.8148V16.3197H124.358C125.086 16.3073 125.808 16.4528 126.474 16.7459C127.139 17.0391 127.733 17.473 128.212 18.0173C129.211 19.0551 129.769 20.4349 129.772 21.8709C129.793 23.3187 129.26 24.7202 128.281 25.7924C127.81 26.3332 127.224 26.7634 126.565 27.0521C125.907 27.3408 125.192 27.4806 124.472 27.4617H121.114V32.8148H117.282ZM121.114 24.1796H124.239C124.47 24.1791 124.697 24.1238 124.902 24.0185C125.107 23.9132 125.283 23.7609 125.417 23.5742C125.764 23.0884 125.935 22.4997 125.901 21.9048C125.94 21.3074 125.746 20.7179 125.36 20.2582C125.204 20.0794 125.011 19.9364 124.793 19.8387C124.576 19.741 124.341 19.6911 124.102 19.6923H121.114V24.1796Z" fill="#FE952B"/>
<path d="M131.827 32.8149V16.3198H139.302C140.027 16.3091 140.746 16.4554 141.408 16.7485C142.071 17.0417 142.661 17.4746 143.139 18.0174C144.147 19.0505 144.712 20.4319 144.716 21.871C144.724 22.8617 144.471 23.8374 143.981 24.7003C143.525 25.5299 142.842 26.2144 142.012 26.6752L145.649 32.8149H141.425L138.249 27.4957H135.659V32.8149H131.827ZM135.659 24.1797H139.16C139.395 24.1775 139.626 24.1168 139.832 24.0032C140.038 23.8895 140.212 23.7265 140.338 23.5289C140.67 23.0534 140.838 22.4835 140.816 21.9049C140.833 21.3194 140.63 20.7486 140.247 20.3035C140.103 20.1148 139.918 19.9604 139.706 19.8518C139.495 19.7431 139.261 19.6828 139.023 19.6754H135.636L135.659 24.1797Z" fill="#FE952B"/>
<path d="M146.372 24.5305C146.364 23.4515 146.57 22.3815 146.979 21.3821C147.389 20.3828 147.993 19.4738 148.758 18.7077C149.509 17.9026 150.424 17.265 151.442 16.8368C152.459 16.4087 153.556 16.1996 154.661 16.2235C156.181 16.2049 157.673 16.6341 158.948 17.4571C160.176 18.2299 161.178 19.3087 161.857 20.5864C162.515 21.8243 162.859 23.2037 162.859 24.6041C162.877 26.7837 162.026 28.8818 160.49 30.4382C159.194 31.7785 157.475 32.6365 155.62 32.8693C153.765 33.102 151.885 32.6953 150.295 31.7171C149.06 30.9485 148.054 29.8663 147.38 28.5821C146.715 27.3342 146.369 25.9428 146.372 24.5305ZM154.615 29.5441C155.231 29.5721 155.844 29.4508 156.401 29.1905C156.958 28.9302 157.444 28.5388 157.815 28.0502C158.58 27.0368 158.981 25.7974 158.953 24.5305C158.984 23.2743 158.571 22.0471 157.786 21.0617C157.392 20.6041 156.904 20.2367 156.353 19.9848C155.803 19.733 155.204 19.6025 154.598 19.6025C153.993 19.6025 153.394 19.733 152.844 19.9848C152.293 20.2367 151.804 20.6041 151.41 21.0617C150.643 22.0655 150.242 23.2985 150.272 24.5588C150.246 25.8213 150.658 27.0541 151.439 28.0502C151.81 28.5334 152.292 28.9213 152.844 29.1812C153.397 29.4411 154.004 29.5656 154.615 29.5441Z" fill="#FE952B"/>
<path d="M165.079 32.8148V16.3197H176.333V19.6583H168.933V23.195H175.024V26.279H168.904V32.8148H165.079Z" fill="#FE952B"/>
<path d="M178.36 32.8148V16.3197H182.191V32.8148H178.36Z" fill="#FE952B"/>
<path d="M198.023 19.6583H192.956V32.8148H189.125V19.6583H184.058V16.3197H198.023V19.6583Z" fill="#FE952B"/>
<path d="M57.6222 43.0571C57.514 42.9368 57.3894 42.832 57.2521 42.7459C57.0864 42.6428 56.9133 42.5521 56.7341 42.4743C56.5293 42.3926 56.3179 42.3282 56.1022 42.2819C55.8687 42.2294 55.63 42.2029 55.3906 42.2026C54.8928 42.1663 54.3968 42.2935 53.9788 42.5648C53.8323 42.6816 53.7157 42.8312 53.6386 43.0013C53.5614 43.1714 53.5258 43.3573 53.5348 43.5438C53.5257 43.7407 53.571 43.9364 53.6657 44.1096C53.7603 44.2691 53.8985 44.3986 54.0642 44.4831C54.2766 44.6037 54.5045 44.6951 54.7416 44.7547C55.0092 44.834 55.3109 44.9132 55.7037 44.998C56.0893 45.0807 56.4696 45.1865 56.8423 45.3149C57.1561 45.4193 57.4533 45.5679 57.7246 45.7563C57.9649 45.9215 58.1604 46.1431 58.2939 46.4014C58.4318 46.693 58.4982 47.013 58.4875 47.3351C58.4951 47.6885 58.4149 48.0384 58.2541 48.3537C58.104 48.6383 57.8873 48.8828 57.6222 49.0667C57.3389 49.2635 57.0199 49.4038 56.6829 49.4797C56.2953 49.5731 55.8976 49.6187 55.4988 49.6156C54.8869 49.6172 54.279 49.5178 53.6999 49.3213C53.1362 49.1288 52.6118 48.8375 52.1514 48.4612L52.6467 47.5897C52.7927 47.7376 52.955 47.8685 53.1306 47.9802C53.3426 48.1184 53.5675 48.2359 53.8023 48.331C54.0649 48.4361 54.3352 48.5212 54.6107 48.5857C54.91 48.6499 55.2153 48.6822 55.5215 48.6819C55.9975 48.7095 56.4715 48.6015 56.8878 48.3706C57.1269 48.2073 57.2941 47.9593 57.3555 47.6775C57.4169 47.3956 57.3677 47.1011 57.218 46.8541C57.0983 46.6865 56.9428 46.5474 56.7626 46.4467C56.5258 46.3184 56.2758 46.2159 56.0168 46.1411C55.7151 46.0562 55.3792 45.9657 54.9978 45.8752C54.6255 45.787 54.2587 45.6774 53.8991 45.5469C53.6151 45.4515 53.3481 45.3121 53.1078 45.1339C52.9037 44.986 52.7378 44.7921 52.6239 44.568C52.5106 44.3055 52.4562 44.0217 52.4645 43.7362C52.4573 43.3786 52.5332 43.0242 52.6865 42.7006C52.8267 42.4037 53.0354 42.1439 53.2957 41.9423C53.5755 41.7272 53.8944 41.5677 54.235 41.4727C54.6207 41.3679 55.0192 41.3165 55.4191 41.3199C55.9315 41.3126 56.4409 41.3989 56.922 41.5745C57.3571 41.7302 57.7616 41.96 58.1174 42.2536L57.6222 43.0571Z" fill="#FE952B"/>
<path d="M64.9316 49.5137H63.9126V46.1524C63.9473 45.6683 63.8342 45.1851 63.5882 44.766C63.4809 44.617 63.3375 44.4973 63.1713 44.4182C63.0051 44.339 62.8215 44.303 62.6374 44.3133C62.4324 44.3145 62.2295 44.3548 62.0397 44.4321C61.8342 44.512 61.6422 44.6226 61.4704 44.7603C61.2925 44.9024 61.1371 45.0703 61.0093 45.2583C60.8721 45.4511 60.7682 45.6653 60.7019 45.8921V49.5137H59.6886V41.1105H60.7076V44.7943C60.9342 44.3726 61.2704 44.0189 61.6811 43.7701C62.0859 43.5259 62.5511 43.3985 63.0246 43.4023C63.3362 43.3935 63.6452 43.4615 63.924 43.6003C64.1551 43.7256 64.3509 43.9065 64.4933 44.1266C64.6478 44.3729 64.7558 44.6452 64.8121 44.9301C64.8775 45.2581 64.9099 45.5917 64.9089 45.926L64.9316 49.5137Z" fill="#FE952B"/>
<path d="M68.0741 49.6325C67.7996 49.634 67.5273 49.5841 67.2714 49.4854C67.0337 49.3951 66.8154 49.2606 66.6281 49.0893C66.4504 48.9298 66.3054 48.7377 66.2012 48.5234C66.095 48.2906 66.0406 48.0377 66.0418 47.7821C66.0382 47.5194 66.1029 47.2602 66.2296 47.0295C66.362 46.8045 66.5428 46.6112 66.759 46.4636C67.0057 46.2939 67.2788 46.1658 67.5674 46.0845C67.9008 45.9912 68.2458 45.9455 68.5921 45.9487C68.8919 45.9472 69.1911 45.9738 69.4859 46.0279C69.7592 46.0706 70.0267 46.1447 70.2829 46.2486V45.762C70.3106 45.5448 70.2886 45.3243 70.2186 45.1168C70.1486 44.9092 70.0324 44.7201 69.8786 44.5635C69.7249 44.4068 69.5375 44.2867 69.3305 44.212C69.1235 44.1373 68.9023 44.1101 68.6832 44.1323C67.9867 44.166 67.3172 44.4109 66.7647 44.8339L66.4289 44.1775C67.1151 43.6868 67.9349 43.4145 68.78 43.3966C69.4586 43.3553 70.126 43.5832 70.6358 44.0304C70.8676 44.2671 71.0468 44.5496 71.1615 44.8597C71.2763 45.1697 71.3241 45.5003 71.3019 45.8299V48.2858C71.3019 48.5234 71.41 48.6479 71.6264 48.6536V49.525L71.3588 49.5646H71.1425C71.0537 49.5687 70.965 49.5547 70.8818 49.5236C70.7986 49.4924 70.7227 49.4448 70.6586 49.3835C70.541 49.2683 70.4667 49.1165 70.448 48.9535V48.5234C70.1822 48.8805 69.8296 49.1648 69.4233 49.3496C68.9996 49.5404 68.5392 49.637 68.0741 49.6325ZM68.3359 48.8743C68.6909 48.8761 69.0421 48.8028 69.3663 48.6592C69.6528 48.539 69.9008 48.3434 70.0836 48.0934C70.1478 48.0369 70.2 47.9683 70.2372 47.8915C70.2743 47.8148 70.2957 47.7314 70.3 47.6463V46.7579C69.8104 46.5665 69.2889 46.4686 68.7629 46.4693C68.3241 46.4496 67.8896 46.562 67.5162 46.7919C67.3691 46.8789 67.2473 47.0023 67.1625 47.15C67.0777 47.2978 67.0328 47.4649 67.0323 47.635C67.0304 47.7972 67.0654 47.9578 67.1348 48.1047C67.1971 48.2507 67.2926 48.3805 67.4137 48.4838C67.5351 48.5965 67.6785 48.6831 67.835 48.7385C67.9921 48.814 68.162 48.86 68.3359 48.8743Z" fill="#FE952B"/>
<path d="M76.135 44.3926C75.6581 44.3992 75.1918 44.5341 74.7858 44.783C74.4015 45.0226 74.109 45.3832 73.9547 45.8072V49.5137H72.9357V43.5041H73.8864V44.9018C74.0776 44.5076 74.3582 44.1628 74.7061 43.8946C75.0202 43.647 75.4 43.4957 75.7991 43.4589H75.9927H76.135V44.3926Z" fill="#FE952B"/>
<path d="M79.6759 49.6326C79.2456 49.6365 78.8192 49.5517 78.4235 49.3836C78.0584 49.2266 77.7291 48.9975 77.4557 48.7102C77.1806 48.4233 76.9658 48.0847 76.8238 47.7143C76.6702 47.3309 76.5929 46.9216 76.5961 46.509C76.5929 46.1 76.6703 45.6944 76.8238 45.315C76.9657 44.9449 77.1828 44.6078 77.4614 44.3247C77.739 44.0371 78.072 43.8081 78.4406 43.6513C78.8341 43.4827 79.2588 43.3979 79.6873 43.4023C80.1165 43.3969 80.5418 43.4838 80.934 43.657C81.2954 43.8148 81.6207 44.0439 81.8904 44.3304C82.1563 44.6136 82.3633 44.9463 82.4995 45.3093C82.6373 45.671 82.7086 46.0543 82.7101 46.4411C82.7101 46.5259 82.7101 46.6052 82.7101 46.6731C82.7176 46.7256 82.7176 46.779 82.7101 46.8315H77.6948C77.7125 47.1158 77.7839 47.3941 77.9054 47.652C78.0151 47.8888 78.1676 48.1036 78.3552 48.2858C78.5403 48.4586 78.7541 48.5983 78.9871 48.6989C79.2222 48.801 79.4762 48.853 79.7328 48.8517C79.9255 48.8533 80.1173 48.8266 80.3021 48.7725C80.475 48.7277 80.6415 48.6611 80.7974 48.5744C80.9506 48.4916 81.0906 48.3867 81.2129 48.2632C81.3296 48.144 81.4224 48.0038 81.4862 47.8501L82.3629 48.0878C82.2634 48.3138 82.1247 48.5207 81.953 48.6989C81.7698 48.9045 81.5568 49.0819 81.3211 49.2251C81.0836 49.3616 80.829 49.4662 80.564 49.5364C80.274 49.6102 79.975 49.6426 79.6759 49.6326ZM81.7481 46.1072C81.7286 45.8341 81.6571 45.5672 81.5374 45.3206C81.4249 45.089 81.2705 44.88 81.082 44.7038C80.901 44.5328 80.6884 44.3982 80.4558 44.3077C80.2115 44.2101 79.9506 44.1601 79.6873 44.1606C79.3008 44.1566 78.9215 44.2648 78.5959 44.4718C78.2703 44.6789 78.0126 44.9758 77.8542 45.3263C77.7383 45.5719 77.6688 45.8366 77.6493 46.1072H81.7481Z" fill="#FE952B"/>
<path d="M86.7748 41.3425L89.5016 48.2179L92.2114 41.3425H93.3101L89.9514 49.5137H89.0462L85.6761 41.3425H86.7748Z" fill="#FE952B"/>
<path d="M95.2001 49.6325C94.9256 49.634 94.6533 49.5841 94.3974 49.4854C94.1597 49.395 93.9414 49.2606 93.7541 49.0893C93.5764 48.9298 93.4314 48.7376 93.3272 48.5234C93.2228 48.2902 93.1704 48.0373 93.1735 47.7821C93.1682 47.5199 93.2309 47.2607 93.3556 47.0295C93.4881 46.8044 93.6688 46.6112 93.8851 46.4636C94.1317 46.2939 94.4048 46.1658 94.6934 46.0845C95.0268 45.9912 95.3718 45.9455 95.7181 45.9487C96.0179 45.9472 96.3171 45.9737 96.6119 46.0279C96.8852 46.0706 97.1527 46.1447 97.4089 46.2486V45.762C97.4283 45.5488 97.4002 45.334 97.3265 45.1329C97.2529 44.9318 97.1354 44.7493 96.9826 44.5985C96.8299 44.4477 96.6455 44.3323 96.4426 44.2605C96.2398 44.1887 96.0235 44.1623 95.8092 44.1832C95.1127 44.2169 94.4432 44.4618 93.8907 44.8848L93.5549 44.2284C94.2411 43.7377 95.0609 43.4654 95.906 43.4475C96.5846 43.4062 97.252 43.6341 97.7618 44.0813C97.9915 44.316 98.1693 44.5958 98.284 44.9027C98.3987 45.2097 98.4477 45.537 98.4279 45.8638V48.3197C98.4279 48.5573 98.536 48.6818 98.7524 48.6875V49.5589L98.4848 49.5986H98.2685C98.1797 49.6026 98.091 49.5886 98.0078 49.5575C97.9246 49.5264 97.8487 49.4787 97.7846 49.4175C97.667 49.3022 97.5927 49.1505 97.574 48.9874V48.5574C97.3082 48.9145 96.9556 49.1987 96.5493 49.3835C96.123 49.5627 95.6627 49.6477 95.2001 49.6325ZM95.4619 48.8742C95.8104 48.8778 96.1556 48.8084 96.4753 48.6705C96.7617 48.5503 97.0097 48.3547 97.1926 48.1047C97.2568 48.0482 97.309 47.9796 97.3461 47.9028C97.3833 47.8261 97.4046 47.7427 97.4089 47.6576V46.7692C96.9193 46.5778 96.3979 46.4799 95.8718 46.4806C95.4331 46.4608 94.9985 46.5733 94.6251 46.8032C94.4781 46.8902 94.3562 47.0136 94.2714 47.1613C94.1866 47.3091 94.1417 47.4762 94.1412 47.6463C94.1393 47.8085 94.1743 47.9691 94.2437 48.116C94.3061 48.262 94.4015 48.3918 94.5226 48.4951C94.644 48.6078 94.7874 48.6944 94.9439 48.7497C95.1071 48.8234 95.2829 48.8657 95.4619 48.8742Z" fill="#FE952B"/>
<path d="M100.107 41.1105H101.126V47.9632C101.116 48.1537 101.182 48.3406 101.308 48.4838C101.373 48.5501 101.451 48.6017 101.538 48.635C101.624 48.6682 101.717 48.6822 101.809 48.6762C101.911 48.6751 102.013 48.6619 102.111 48.6366C102.231 48.6083 102.333 48.5743 102.436 48.5404L102.601 49.3552C102.405 49.4298 102.203 49.4885 101.997 49.5306C101.795 49.5726 101.589 49.5953 101.382 49.5985C101.212 49.6071 101.042 49.582 100.882 49.5247C100.722 49.4674 100.574 49.379 100.449 49.2647C100.331 49.1401 100.24 48.9931 100.182 48.8326C100.123 48.6722 100.098 48.5015 100.107 48.331V41.1105Z" fill="#FE952B"/>
<path d="M105.231 49.6325C104.957 49.6496 104.683 49.6009 104.433 49.4906C104.182 49.3802 103.962 49.2116 103.791 48.9988C103.428 48.4372 103.258 47.7742 103.307 47.1088V43.5042H104.326V46.8994C104.326 48.1273 104.753 48.7385 105.612 48.7385C106.036 48.7368 106.448 48.5978 106.785 48.3424C107.159 48.0674 107.444 47.6897 107.605 47.2559V43.4872H108.646V48.2575C108.646 48.4951 108.755 48.6196 108.971 48.6253V49.4967L108.698 49.5307H108.504C108.32 49.5359 108.141 49.4712 108.003 49.3496C107.936 49.2969 107.882 49.2299 107.844 49.1534C107.807 49.077 107.787 48.9932 107.787 48.9082V48.2065C107.533 48.6428 107.165 49.0026 106.722 49.2477C106.269 49.5064 105.754 49.6393 105.231 49.6325Z" fill="#FE952B"/>
<path d="M113.013 49.6326C112.582 49.637 112.156 49.5522 111.76 49.3836C111.394 49.2252 111.063 48.9964 110.787 48.7102C110.516 48.4204 110.301 48.0826 110.155 47.7143C110.006 47.3298 109.931 46.921 109.933 46.509C109.931 46.1006 110.006 45.6955 110.155 45.315C110.301 44.9471 110.518 44.6108 110.793 44.3247C111.071 44.0384 111.404 43.8096 111.772 43.6513C112.167 43.4832 112.594 43.3984 113.024 43.4024C113.633 43.3926 114.23 43.5708 114.732 43.9123C115.235 44.2539 115.619 44.742 115.831 45.3093C115.97 45.6707 116.044 46.054 116.047 46.4411C116.047 46.526 116.047 46.6052 116.047 46.6731C116.047 46.741 116.047 46.7976 116.047 46.8315H111.032C111.05 47.1151 111.119 47.393 111.237 47.652C111.348 47.8891 111.503 48.1039 111.692 48.2858C111.875 48.461 112.09 48.601 112.324 48.6989C112.559 48.801 112.813 48.853 113.07 48.8517C113.262 48.8525 113.454 48.8258 113.639 48.7725C113.812 48.7277 113.978 48.6612 114.134 48.5744C114.285 48.4901 114.423 48.3853 114.544 48.2632C114.661 48.144 114.754 48.0038 114.817 47.8501L115.7 48.0878C115.598 48.3141 115.458 48.5209 115.284 48.6989C115.11 48.8876 114.908 49.0497 114.686 49.1799C114.447 49.3164 114.19 49.421 113.924 49.4911C113.629 49.5834 113.322 49.631 113.013 49.6326ZM115.085 46.1072C115.064 45.8338 114.99 45.5669 114.869 45.3207C114.758 45.0893 114.606 44.8802 114.419 44.7039C114.134 44.4414 113.78 44.2648 113.398 44.1946C113.016 44.1245 112.622 44.1637 112.261 44.3077C112.026 44.3988 111.811 44.5353 111.629 44.7095C111.445 44.8869 111.295 45.0958 111.185 45.3263C111.074 45.5731 111.006 45.8374 110.986 46.1072H115.085Z" fill="#FE952B"/>
<path d="M117.1 49.5136V48.2291H117.954V49.5136H117.1Z" fill="#FE952B"/>
<path d="M128.924 47.4086C128.928 47.7076 128.864 48.0036 128.736 48.2744C128.61 48.5305 128.431 48.7578 128.212 48.9421C127.986 49.1283 127.728 49.2721 127.45 49.3665C127.149 49.468 126.833 49.5178 126.516 49.5137H122.611V41.3425H126.704C126.973 41.3399 127.238 41.402 127.478 41.5236C127.697 41.6461 127.89 41.8094 128.047 42.0046C128.374 42.4066 128.553 42.9078 128.554 43.4249C128.557 43.8229 128.451 44.2142 128.247 44.5566C128.045 44.8979 127.74 45.1673 127.376 45.3262C127.832 45.4431 128.234 45.7129 128.514 46.0901C128.79 46.4741 128.934 46.9366 128.924 47.4086ZM123.658 42.2422V44.9697H126.294C126.471 44.9722 126.647 44.9334 126.806 44.8565C126.957 44.7873 127.092 44.6892 127.205 44.5679C127.306 44.4371 127.383 44.2896 127.432 44.1322C127.496 43.966 127.529 43.7896 127.529 43.6116C127.534 43.419 127.503 43.2272 127.438 43.0458C127.381 42.8868 127.297 42.7393 127.188 42.61C127.084 42.4863 126.954 42.3876 126.806 42.3214C126.656 42.2535 126.493 42.2187 126.328 42.2196L123.658 42.2422ZM127.871 47.2275C127.87 47.0441 127.837 46.8622 127.774 46.69C127.711 46.5252 127.621 46.3721 127.507 46.2373C127.397 46.1075 127.261 46.0016 127.108 45.926C126.949 45.8458 126.774 45.805 126.596 45.8072H123.658V48.6366H126.505C126.69 48.6383 126.873 48.5976 127.04 48.5177C127.2 48.4435 127.345 48.3398 127.467 48.2122C127.593 48.0864 127.692 47.9361 127.757 47.7708C127.831 47.599 127.87 47.4143 127.871 47.2275Z" fill="#FE952B"/>
<path d="M132.089 49.6325C131.816 49.6496 131.542 49.6009 131.291 49.4906C131.04 49.3802 130.82 49.2116 130.649 48.9988C130.287 48.4372 130.117 47.7742 130.165 47.1088V43.5042H131.184V46.8994C131.184 48.1273 131.611 48.7385 132.471 48.7385C132.894 48.7368 133.306 48.5978 133.643 48.3424C134.019 48.0691 134.304 47.6909 134.463 47.2559V43.4872H135.482V48.2575C135.482 48.4951 135.59 48.6196 135.807 48.6253V49.4967L135.533 49.5307H135.34C135.156 49.5348 134.977 49.4702 134.839 49.3496C134.774 49.2949 134.721 49.2274 134.684 49.1515C134.647 49.0755 134.626 48.9927 134.622 48.9082V48.2065C134.369 48.6428 134.001 49.0026 133.558 49.2477C133.111 49.5025 132.604 49.6353 132.089 49.6325Z" fill="#FE952B"/>
<path d="M137.184 42.378V41.1105H138.203V42.378H137.184ZM137.184 49.5137V43.5041H138.203V49.5137H137.184Z" fill="#FE952B"/>
<path d="M139.871 41.1105H140.89V47.9632C140.88 48.1537 140.946 48.3406 141.072 48.4838C141.137 48.5504 141.215 48.6023 141.301 48.6355C141.388 48.6688 141.481 48.6826 141.573 48.6762C141.675 48.6751 141.776 48.6619 141.875 48.6366L142.2 48.5404L142.359 49.3552C142.165 49.4299 141.965 49.4886 141.761 49.5306C141.559 49.5726 141.353 49.5953 141.146 49.5985C140.976 49.6071 140.806 49.582 140.646 49.5247C140.486 49.4674 140.338 49.379 140.213 49.2647C140.095 49.1401 140.004 48.9931 139.946 48.8326C139.887 48.6722 139.862 48.5015 139.871 48.331V41.1105Z" fill="#FE952B"/>
<path d="M145.649 49.6325C145.255 49.6336 144.866 49.5466 144.511 49.3778C144.163 49.2145 143.851 48.9836 143.594 48.6988C143.334 48.4094 143.131 48.0733 142.997 47.7085C142.854 47.3285 142.783 46.9258 142.786 46.5202C142.782 46.1119 142.85 45.706 142.985 45.3206C143.112 44.9566 143.305 44.6189 143.554 44.3246C143.793 44.0436 144.088 43.8144 144.42 43.6512C144.765 43.4839 145.145 43.3987 145.53 43.4023C145.993 43.3939 146.448 43.5261 146.833 43.7814C147.199 44.0193 147.508 44.3342 147.739 44.7037V41.1105H148.758V48.2744C148.758 48.5121 148.866 48.6366 149.082 48.6422V49.5136L148.826 49.5533H148.632C148.436 49.5544 148.247 49.4816 148.103 49.3495C148.035 49.2926 147.979 49.2217 147.941 49.1416C147.903 49.0615 147.882 48.9742 147.881 48.8855V48.3763C147.649 48.7601 147.319 49.0763 146.925 49.293C146.536 49.5128 146.097 49.6297 145.649 49.6325ZM145.894 48.7554C146.088 48.7525 146.28 48.7181 146.463 48.6535C146.667 48.5862 146.859 48.4889 147.033 48.3649C147.204 48.2441 147.358 48.0992 147.488 47.9349C147.61 47.7812 147.694 47.6008 147.733 47.4086V45.711C147.663 45.5055 147.557 45.314 147.42 45.1451C147.286 44.9752 147.129 44.8247 146.953 44.6981C146.778 44.5732 146.586 44.4724 146.384 44.3982C146.202 44.3284 146.009 44.292 145.814 44.2907C145.53 44.2868 145.249 44.3508 144.995 44.4774C144.755 44.6052 144.542 44.7782 144.368 44.9867C144.193 45.2023 144.058 45.4477 143.97 45.711C143.879 45.981 143.833 46.2638 143.833 46.5485C143.823 47.1211 144.025 47.6774 144.403 48.1103C144.587 48.3114 144.81 48.4748 145.057 48.5913C145.32 48.7085 145.606 48.7646 145.894 48.7554Z" fill="#FE952B"/>
<path d="M158.367 43.0572C158.259 42.9369 158.134 42.8321 157.997 42.7459C157.831 42.6441 157.658 42.5533 157.479 42.4743C157.274 42.3926 157.063 42.3282 156.847 42.2819C156.612 42.2292 156.371 42.2026 156.13 42.2027C155.634 42.1646 155.139 42.292 154.724 42.5649C154.577 42.6816 154.461 42.8312 154.383 43.0014C154.306 43.1715 154.271 43.3574 154.28 43.5438C154.269 43.7403 154.312 43.9359 154.405 44.1097C154.502 44.2668 154.64 44.3956 154.803 44.4832C155.018 44.6037 155.248 44.6951 155.486 44.7548C155.754 44.834 156.056 44.9132 156.443 44.9981C156.828 45.081 157.209 45.1868 157.581 45.315C157.895 45.4194 158.192 45.568 158.464 45.7564C158.704 45.9216 158.9 46.1432 159.033 46.4015C159.171 46.6931 159.237 47.0131 159.227 47.3352C159.234 47.6886 159.154 48.0384 158.993 48.3537C158.843 48.6383 158.626 48.8829 158.361 49.0667C158.076 49.2636 157.755 49.4038 157.416 49.4798C157.031 49.5732 156.635 49.6188 156.238 49.6156C155.624 49.6169 155.014 49.5174 154.433 49.3214C153.872 49.1276 153.35 48.8363 152.891 48.4612L153.386 47.5898C153.532 47.7376 153.694 47.8686 153.87 47.9803C154.081 48.1197 154.306 48.2372 154.541 48.3311C154.804 48.437 155.074 48.5221 155.35 48.5857C155.649 48.65 155.954 48.6822 156.261 48.6819C156.737 48.7095 157.211 48.6016 157.627 48.3707C157.784 48.2721 157.912 48.1335 157.997 47.9694C158.082 47.8052 158.121 47.6214 158.111 47.437C158.115 47.2377 158.061 47.0415 157.957 46.8711C157.837 46.7036 157.682 46.5644 157.502 46.4637C157.263 46.3355 157.011 46.233 156.75 46.1581C156.454 46.0733 156.118 45.9827 155.737 45.8922C155.365 45.804 154.998 45.6944 154.638 45.564C154.354 45.4695 154.087 45.33 153.847 45.1509C153.641 45.0045 153.475 44.8102 153.363 44.585C153.25 44.3226 153.195 44.0387 153.204 43.7532C153.197 43.3963 153.271 43.0425 153.42 42.7176C153.564 42.4216 153.774 42.1622 154.035 41.9594C154.314 41.7432 154.633 41.5837 154.974 41.4897C155.36 41.3849 155.758 41.3335 156.158 41.3369C156.671 41.3301 157.18 41.4164 157.661 41.5916C158.096 41.7472 158.501 41.977 158.857 42.2706L158.367 43.0572Z" fill="#FE952B"/>
<path d="M162.295 49.6325C162.022 49.6486 161.75 49.5995 161.5 49.4892C161.25 49.3789 161.031 49.2108 160.86 48.9988C160.496 48.4379 160.324 47.7748 160.371 47.1088V43.5042H161.39V46.8994C161.39 48.1273 161.817 48.7385 162.676 48.7385C163.102 48.736 163.515 48.5971 163.855 48.3424C164.227 48.0671 164.51 47.6893 164.669 47.2559V43.4872H165.688V48.2575C165.688 48.4951 165.796 48.6196 166.012 48.6253V49.4967L165.739 49.5307H165.574C165.388 49.5357 165.207 49.4711 165.067 49.3496C165.003 49.2949 164.95 49.2274 164.913 49.1515C164.875 49.0755 164.854 48.9927 164.851 48.9082V48.2065C164.599 48.6441 164.231 49.0042 163.786 49.2477C163.333 49.5064 162.818 49.6393 162.295 49.6325Z" fill="#FE952B"/>
<path d="M166.986 46.4976C166.984 46.0892 167.059 45.6842 167.208 45.3036C167.344 44.9363 167.555 44.601 167.828 44.319C168.103 44.0347 168.432 43.8077 168.796 43.6513C169.193 43.4821 169.622 43.3973 170.054 43.4023C170.601 43.3897 171.14 43.5267 171.614 43.7984C172.038 44.0556 172.382 44.4262 172.605 44.8679L171.608 45.1735C171.46 44.8959 171.235 44.6662 170.959 44.5114C170.675 44.3562 170.356 44.2763 170.031 44.2794C169.761 44.2786 169.493 44.3345 169.246 44.4435C169.001 44.5512 168.783 44.7117 168.608 44.9132C168.424 45.1193 168.279 45.357 168.181 45.6148C167.973 46.187 167.973 46.8139 168.181 47.386C168.283 47.6498 168.431 47.8933 168.62 48.1047C168.798 48.3053 169.015 48.4688 169.257 48.5857C169.501 48.6996 169.768 48.7576 170.037 48.7554C170.216 48.756 170.394 48.7313 170.567 48.6819C170.732 48.6337 170.891 48.5653 171.039 48.4781C171.176 48.3976 171.302 48.3007 171.415 48.1895C171.519 48.0858 171.599 47.9601 171.648 47.8217L172.644 48.1216C172.551 48.3456 172.42 48.5523 172.257 48.7328C172.091 48.917 171.899 49.077 171.688 49.2081C171.454 49.3427 171.204 49.4455 170.942 49.5137C170.661 49.5935 170.37 49.6335 170.077 49.6325C169.646 49.6374 169.219 49.5505 168.825 49.3779C168.459 49.2154 168.129 48.9849 167.851 48.6988C167.58 48.409 167.365 48.0712 167.219 47.7029C167.066 47.3191 166.987 46.9103 166.986 46.4976Z" fill="#FE952B"/>
<path d="M173.345 46.4976C173.342 46.0892 173.418 45.6842 173.567 45.3036C173.703 44.9363 173.914 44.601 174.187 44.319C174.462 44.0347 174.791 43.8077 175.155 43.6513C175.552 43.4821 175.981 43.3973 176.413 43.4023C176.96 43.3897 177.499 43.5267 177.973 43.7984C178.397 44.0556 178.741 44.4262 178.963 44.8679L177.967 45.1735C177.819 44.8959 177.594 44.6662 177.318 44.5114C177.034 44.3562 176.715 44.2763 176.39 44.2794C176.12 44.2786 175.852 44.3345 175.605 44.4435C175.36 44.5512 175.142 44.7117 174.967 44.9132C174.783 45.1193 174.638 45.357 174.54 45.6148C174.331 46.187 174.331 46.8139 174.54 47.386C174.642 47.6498 174.79 47.8933 174.978 48.1047C175.157 48.3053 175.374 48.4688 175.616 48.5857C175.86 48.6996 176.127 48.7576 176.396 48.7554C176.588 48.752 176.778 48.7196 176.96 48.6592C177.125 48.6111 177.284 48.5426 177.432 48.4555C177.569 48.375 177.695 48.2781 177.808 48.1669C177.912 48.0631 177.992 47.9375 178.041 47.7991L179.037 48.099C178.944 48.323 178.813 48.5296 178.65 48.7101C178.484 48.8943 178.292 49.0543 178.081 49.1855C177.847 49.3201 177.597 49.4228 177.335 49.491C177.054 49.5709 176.763 49.6109 176.47 49.6099C176.039 49.6147 175.612 49.5279 175.218 49.3552C174.852 49.1928 174.522 48.9623 174.244 48.6762C173.973 48.3864 173.758 48.0486 173.612 47.6803C173.45 47.3058 173.36 46.9048 173.345 46.4976Z" fill="#FE952B"/>
<path d="M182.783 49.6326C182.353 49.6365 181.927 49.5517 181.531 49.3836C181.165 49.2252 180.834 48.9964 180.557 48.7102C180.286 48.4204 180.072 48.0826 179.925 47.7143C179.777 47.3298 179.701 46.921 179.703 46.509C179.701 46.1006 179.777 45.6955 179.925 45.315C180.071 44.9451 180.288 44.6076 180.566 44.322C180.844 44.0364 181.175 43.8084 181.542 43.6513C181.938 43.4832 182.364 43.3984 182.795 43.4023C183.224 43.3969 183.649 43.4838 184.041 43.657C184.403 43.8148 184.728 44.0439 184.998 44.3304C185.262 44.6139 185.467 44.9466 185.601 45.3093C185.743 45.6699 185.817 46.0537 185.818 46.4411C185.818 46.5259 185.818 46.6052 185.818 46.6731C185.818 46.741 185.818 46.7976 185.818 46.8315H180.802C180.82 47.1158 180.891 47.3941 181.013 47.652C181.121 47.89 181.273 48.1051 181.463 48.2858C181.648 48.4586 181.861 48.5983 182.094 48.6989C182.33 48.801 182.584 48.853 182.84 48.8517C183.033 48.8533 183.225 48.8266 183.409 48.7724C183.582 48.7277 183.749 48.6611 183.905 48.5744C184.055 48.4901 184.193 48.3853 184.315 48.2632C184.431 48.144 184.524 48.0038 184.588 47.8501L185.47 48.0878C185.369 48.3127 185.23 48.5192 185.06 48.6989C184.883 48.8864 184.68 49.0482 184.457 49.1799C184.219 49.3163 183.965 49.421 183.7 49.4911C183.403 49.5829 183.094 49.6306 182.783 49.6326ZM184.855 46.1072C184.836 45.8341 184.764 45.5672 184.645 45.3206C184.532 45.089 184.378 44.88 184.189 44.7038C183.957 44.4828 183.674 44.3204 183.365 44.2303C183.056 44.1402 182.73 44.125 182.414 44.1859C182.098 44.2469 181.801 44.3822 181.548 44.5806C181.296 44.779 181.094 45.0347 180.962 45.3263C180.846 45.5719 180.776 45.8366 180.757 46.1072H184.855Z" fill="#FE952B"/>
<path d="M189.074 49.6325C188.585 49.6334 188.098 49.557 187.633 49.4062C187.19 49.27 186.778 49.0489 186.421 48.7554L186.859 48.0764C187.184 48.3272 187.542 48.5311 187.924 48.6819C188.287 48.8193 188.673 48.8884 189.062 48.8856C189.43 48.9019 189.794 48.8114 190.11 48.6253C190.232 48.5468 190.332 48.4384 190.399 48.3106C190.467 48.1827 190.501 48.0397 190.497 47.8953C190.5 47.7617 190.465 47.63 190.394 47.5162C190.313 47.4038 190.206 47.3125 190.081 47.2502C189.911 47.1606 189.732 47.0904 189.546 47.0408L188.795 46.8428C188.43 46.7522 188.117 46.6674 187.855 46.5825C187.627 46.512 187.408 46.4112 187.207 46.2826C187.048 46.1777 186.921 46.0333 186.836 45.8638C186.756 45.6763 186.717 45.4736 186.723 45.2697C186.717 44.9917 186.777 44.7164 186.899 44.4661C187.018 44.2419 187.187 44.0482 187.394 43.9002C187.613 43.7349 187.863 43.6138 188.129 43.5438C188.424 43.4578 188.731 43.4158 189.04 43.4193C189.473 43.4155 189.903 43.4903 190.309 43.64C190.675 43.7628 191.013 43.955 191.305 44.2058L190.844 44.8113C190.593 44.5944 190.303 44.4256 189.99 44.3133C189.678 44.2008 189.349 44.1433 189.017 44.1436C188.686 44.1324 188.358 44.2148 188.072 44.3812C187.944 44.459 187.84 44.5705 187.772 44.7033C187.703 44.8361 187.673 44.9851 187.685 45.1339C187.679 45.2533 187.705 45.3722 187.759 45.479C187.816 45.5828 187.904 45.6674 188.009 45.7224C188.149 45.8015 188.298 45.8642 188.453 45.9091L189.108 46.0789C189.506 46.1694 189.859 46.2656 190.155 46.3618C190.416 46.4409 190.665 46.5551 190.895 46.7013C191.079 46.8154 191.232 46.9729 191.339 47.1597C191.44 47.3598 191.488 47.5814 191.482 47.8048C191.49 48.063 191.436 48.3194 191.323 48.552C191.21 48.7846 191.042 48.9865 190.833 49.1402C190.319 49.4972 189.699 49.6708 189.074 49.6325Z" fill="#FE952B"/>
<path d="M194.795 49.6325C194.308 49.6338 193.823 49.5574 193.36 49.4061C192.915 49.2712 192.501 49.05 192.142 48.7554L192.58 48.0763C192.905 48.3272 193.263 48.5311 193.645 48.6818C194.009 48.8193 194.395 48.8884 194.784 48.8855C195.151 48.9019 195.515 48.8114 195.831 48.6252C195.953 48.5467 196.053 48.4384 196.121 48.3105C196.188 48.1827 196.222 48.0397 196.218 47.8953C196.222 47.7617 196.186 47.63 196.116 47.5161C196.034 47.4037 195.927 47.3125 195.803 47.2502C195.633 47.1606 195.453 47.0904 195.267 47.0408L194.516 46.8427C194.152 46.7522 193.839 46.6673 193.577 46.5824C193.348 46.512 193.129 46.4111 192.928 46.2825C192.77 46.1777 192.642 46.0333 192.558 45.8638C192.477 45.6763 192.438 45.4735 192.444 45.2696C192.438 44.9917 192.499 44.7164 192.62 44.4661C192.739 44.2419 192.909 44.0481 193.116 43.9002C193.335 43.736 193.585 43.615 193.85 43.5437C194.146 43.4581 194.453 43.4162 194.761 43.4192C195.196 43.4159 195.628 43.4907 196.036 43.6399C196.401 43.7653 196.738 43.9572 197.032 44.2058L196.565 44.8113C196.314 44.5943 196.025 44.4255 195.712 44.3133C195.399 44.2007 195.07 44.1433 194.738 44.1435C194.407 44.133 194.079 44.2154 193.793 44.3812C193.665 44.459 193.561 44.5705 193.493 44.7033C193.424 44.8361 193.394 44.9851 193.406 45.1338C193.4 45.2533 193.426 45.3722 193.48 45.479C193.538 45.5827 193.625 45.6673 193.73 45.7223C193.871 45.8015 194.02 45.8641 194.174 45.9091L194.829 46.0788C195.233 46.1694 195.581 46.2656 195.877 46.3618C196.138 46.4409 196.387 46.5551 196.617 46.7013C196.8 46.8154 196.953 46.9728 197.061 47.1596C197.161 47.3597 197.21 47.5813 197.203 47.8047C197.212 48.0629 197.157 48.3193 197.044 48.5519C196.931 48.7846 196.763 48.9864 196.554 49.1402C196.041 49.4972 195.42 49.6707 194.795 49.6325Z" fill="#FE952B"/>
<path d="M2.39096 15.3854C1.69677 15.0333 1.1094 14.5039 0.6892 13.8515C0.268996 13.1991 0.031115 12.4473 0 11.6733V1.82712C0 0.350193 1.07024 -0.37978 2.39096 0.19175L26.0159 10.434C30.1318 12.2222 32.1869 15.3458 32.1869 19.007V32.0899C32.1869 29.7528 30.1318 27.4101 26.0159 25.6276L2.39096 15.3854Z" fill="#FE952B"/>
<path d="M13.8562 43.821V56.157C13.8239 56.9315 13.585 57.6834 13.1638 58.3358C12.7426 58.9881 12.1544 59.5173 11.4595 59.8691L2.39096 63.8019C1.07024 64.3678 0 63.6435 0 62.1665V37.3078C0.0317004 36.5339 0.269818 35.7823 0.689957 35.13C1.1101 34.4778 1.69715 33.9482 2.39096 33.5957L23.3916 24.4908L26.0159 25.6226C30.1318 27.4051 32.1869 29.7478 32.1869 32.0848C32.1869 34.4219 30.1318 36.7589 26.0159 38.5414L13.8562 43.821Z" fill="#FE952B"/>
</g>
<defs>
<clipPath id="clip0_208_2">
<rect width="198" height="64" fill="white"/>
</clipPath>
</defs>
</svg>
